<?xml version="1.0" encoding="utf-8"?>
<!-- Generator: Adobe Illustrator 26.0.1, SVG Export Plug-In . SVG Version: 6.00 Build 0)  -->
<svg version="1.1" id="Layer_1" xmlns="http://www.w3.org/2000/svg" xmlns:xlink="http://www.w3.org/1999/xlink" x="0px" y="0px"
	 viewBox="0 0 2160 1023.3" style="enable-background:new 0 0 2160 1023.3;" xml:space="preserve">
<style type="text/css">
	.st0{fill:#FFFFFF;}
	.st1{fill:url(#SVGID_1_);}
	.st2{fill:url(#SVGID_00000096758285901683042690000006193538935942453637_);}
</style>
<g>
	<g>
		<path class="st0" d="M299.6,704.6c6.4,0,10,3.6,10,9.6v40.5c0,5.9-3.6,9.6-10,9.6H73.8v69.2h189.9c6.4,0,10.5,3.2,10.5,9.6v39.2
			c0,5.9-4.1,9.6-10.5,9.6H73.8v71.9h225.8c6.4,0,10,3.6,10,9.6v40.5c0,5.9-3.6,9.6-10,9.6H10c-6.8,0-10-3.6-10-9.6V714.2
			c0-5.9,3.2-9.6,10-9.6H299.6z"/>
		<path class="st0" d="M473.9,764.3H361c-6.8,0-10-3.6-10-9.6v-40.5c0-5.9,3.2-9.6,10-9.6h299.1c6.8,0,10,3.6,10,9.6v40.5
			c0,5.9-3.2,9.6-10,9.6H547.7v249.5c0,5.9-4.1,9.6-10.5,9.6H484c-6.4,0-10-3.6-10-9.6V764.3z"/>
		<path class="st0" d="M1011.2,704.6c6.4,0,10,3.6,10,9.6v40.5c0,5.9-3.6,9.6-10,9.6H785.3v69.2h189.9c6.4,0,10.5,3.2,10.5,9.6v39.2
			c0,5.9-4.1,9.6-10.5,9.6H785.3v71.9h225.8c6.4,0,10,3.6,10,9.6v40.5c0,5.9-3.6,9.6-10,9.6H721.6c-6.8,0-10-3.6-10-9.6V714.2
			c0-5.9,3.2-9.6,10-9.6H1011.2z"/>
		<path class="st0" d="M1386.3,775.6v62.8c0,49.2-22.8,74.2-74.7,74.2h-12.3l96.5,101.1c4.1,3.6,1.8,9.6-3.2,9.6h-68.8
			c-8.6,0-12.3-1.8-16.8-7.3l-89.7-100.2h-81v97.9c0,5.9-4.1,9.6-10.5,9.6h-53.3c-6.8,0-10-3.6-10-9.6V714.2c0-5.9,3.2-9.6,10-9.6
			h239C1363.5,704.6,1386.3,726.9,1386.3,775.6z M1136.3,856.2h138.9c31.9,0,37.3-5.5,37.3-31.9v-28.2c0-26.4-5.5-31.9-37.3-31.9
			h-138.9V856.2z"/>
		<path class="st0" d="M1674.3,1023.3c-7.3,0-10.9-1.8-14.1-7.7l-152.5-251.8v250c0,5.9-3.6,9.6-10,9.6h-48.3c-6.8,0-10-3.6-10-9.6
			V714.2c0-5.9,3.2-9.6,10-9.6h92c7.3,0,10.9,2.3,14.1,7.7L1708,964.6V714.2c0-5.9,4.1-9.6,10.5-9.6h48.3c6.4,0,10,3.6,10,9.6v299.6
			c0,5.9-3.6,9.6-10,9.6H1674.3z"/>
		<path class="st0" d="M1939.2,862.1l-116.6-148c-3.6-4.6-1.4-9.6,3.6-9.6h67.4c7.3,0,10.9,1.4,15,7.3l82,108.4l82.4-108.4
			c3.6-5.9,7.7-7.3,15.5-7.3h62.8c5.5,0,7.3,5,4.1,9.6l-117,148l119.7,151.6c3.6,4.6,1.4,9.6-3.6,9.6h-67.4c-6.8,0-10.9-1.4-15-7.3
			L1987,904.5l-84.7,111.6c-4.6,5.9-8.2,7.3-15.5,7.3h-63.3c-5,0-7.3-5-3.6-9.6L1939.2,862.1z"/>
	</g>
	<g>
		<linearGradient id="SVGID_1_" gradientUnits="userSpaceOnUse" x1="966.5023" y1="0" x2="966.5023" y2="508.9715">
			<stop  offset="0" style="stop-color:#1D97E3"/>
			<stop  offset="1" style="stop-color:#1BFEC6"/>
		</linearGradient>
		<path class="st1" d="M952.5,107.1c-6.3,3.1-13.7,3.1-20,0l-47-23.5c-7.2-3.6-14.9-5.3-22.5-5.3c-13,0-25.7,5-35.5,14.7L701.5,219
			c-11.1,11-16.3,26.2-14.3,41.9c1.5,11.5,7.5,22,15.7,30.3l124.6,124.6c9.7,9.6,22.5,14.7,35.5,14.7c7.6,0,15.3-1.7,22.5-5.3
			l391.6-195.9c3.2-1.6,6.7-2.3,10.1-2.3c8.2,0,16.1,4.5,20,12.4l15,30c5.5,11.1,1,24.5-10,30l-94.6,47.3l-20,10l-87.6,43.9
			l-189.5,94.7c-18.3,9.2-38,13.6-57.5,13.6c-33.3,0-66.1-13-90.8-37.7l-126-126.1c-50.2-50.1-50.2-131.4,0-181.6l126-126.1
			C796.9,13,829.7,0,863.1,0c19.5,0,39,4.5,57.4,13.5l89.5,44.8c8.2,4.1,8.2,15.9,0,20L952.5,107.1z"/>
		
			<linearGradient id="SVGID_00000152982337309314218150000004614675825594455722_" gradientUnits="userSpaceOnUse" x1="1193.4922" y1="-4.506197e-02" x2="1193.4922" y2="508.9715">
			<stop  offset="0" style="stop-color:#1D97E3"/>
			<stop  offset="1" style="stop-color:#1BFEC6"/>
		</linearGradient>
		<path style="fill:url(#SVGID_00000152982337309314218150000004614675825594455722_);" d="M1297,509c33.3,0,66.1-13,90.8-37.7
			l126-126.1c50.2-50.1,50.2-131.4,0.1-181.6L1387.9,37.6C1363.2,12.9,1330.3,0,1297.1,0c-19.5,0-39.2,4.4-57.4,13.6L1130,68.3
			l-50,25.1l-87.6,43.7l-50,25.1l-94.5,47.2c-11.1,5.6-15.5,19-10.1,30.1l15,30c4,7.8,11.8,12.4,20,12.4c3.4,0,6.8-0.8,10.1-2.4
			l147.1-73.5l87.5-43.8l157.2-78.5c7.1-3.5,14.7-5.3,22.3-5.3c13,0,25.9,5.1,35.5,14.7l126,126.1c11.1,11,16.4,26.2,14.3,42
			c-1.5,11.6-7.5,22.1-15.8,30.4l-124.5,124.5c-9.7,9.7-22.5,14.7-35.4,14.7c-7.6,0-15.3-1.7-22.4-5.3l-47-23.5
			c-6.3-3.2-13.7-3.1-20,0l-57.6,28.8c-8.2,4.1-8.2,15.9,0,20l89.6,44.7C1257.9,504.5,1277.6,509,1297,509z"/>
	</g>
</g>
</svg>
