<?xml version="1.0" encoding="UTF-8"?>
<svg id="Layer_2" data-name="Layer 2" xmlns="http://www.w3.org/2000/svg" viewBox="0 0 109.9 90.06">
  <defs>
    <style>
      .cls-1 {
        fill: #fff;
      }
    </style>
  </defs>
  <g id="Layer_1-2" data-name="Layer 1">
    <path class="cls-1" d="m9.94,86.1c-.27-.05-.53-.12-.79-.2-.16-.05-.31-.1-.47-.15-.49-.16.1.05-.17-.06-.25-.11-.49-.24-.73-.37-.12-.07-.23-.14-.35-.21.01,0-.4-.27-.22-.14-.21-.16-.41-.35-.6-.54-.11-.11-.22-.23-.33-.36-.33-.38.06.1-.11-.14-.15-.22-.29-.45-.41-.69-.03-.05-.15-.36-.06-.12-.05-.14-.1-.28-.14-.42s-.07-.29-.1-.43c-.06-.3-.01-.11,0-.04-.03-.27-.03-.54-.02-.82,0-.07.04-.39,0-.12.02-.12.04-.24.07-.36s.06-.24.1-.35c.01-.05.16-.42.06-.19.1-.22.22-.43.35-.63.22-.34-.17.13.12-.15.09-.08.17-.17.26-.26.3-.27.77-.48,1.27-.59.93-.21,1.82-.01,2.54.39.79.44,1.35,1.03,1.8,1.82.07.13.14.26.2.39.21.41-.05-.14.05.11.09.23.16.46.22.69.03.12.05.24.08.35.09.44,0-.16.01.1.02.29.02.58,0,.87-.02.27.08-.34-.01.11-.03.12-.05.24-.08.36s-.07.22-.1.34c-.11.41.07-.14-.03.09-.09.21-.21.41-.33.61-.06.1-.13.19-.19.29.16-.23-.12.14-.16.18-.17.19-.36.36-.55.53-.32.3.22-.13-.14.11-.12.08-.23.16-.35.23-.24.15-.49.28-.74.39.29-.13-.14.05-.16.06-.13.05-.27.09-.4.12-.11.03-.23.06-.34.08-.07.01-.54.08-.22.05-.28.03-.55.04-.83.03-.09,0-.18-.01-.28-.02-.18-.02-.18-.02-.01,0-.09-.02-.18-.03-.27-.06-.27-.06-.54-.15-.8-.26-.75-.3-1.65.33-1.85,1.05-.24.86.29,1.54,1.05,1.85,2.58,1.04,5.63.18,7.62-1.65,2.22-2.04,2.71-5.16,1.53-7.87s-3.91-4.61-6.84-4.42c-1.78.11-3.41.88-4.48,2.32-.85,1.14-1.25,2.65-1.16,4.07.25,3.63,3.28,6.24,6.7,6.94.79.16,1.62-.23,1.85-1.05.2-.74-.25-1.68-1.05-1.85h0Z"/>
    <path class="cls-1" d="m9.05,78.78c-.15-.17-.29-.34-.43-.51-.18-.21.16.22,0,0-.08-.11-.16-.21-.23-.32-.27-.4-.52-.81-.72-1.25-.15-.32.07.2-.02-.04-.03-.09-.07-.18-.1-.27-.07-.22-.13-.44-.17-.66-.07-.36,0,.27,0,0,0-.1,0-.2,0-.3,0-.04,0-.08,0-.13,0-.15.09-.12-.03.15.04-.09.04-.22.08-.32.01-.04.03-.08.04-.12.03-.14-.06.16-.07.17.04-.03.12-.2.14-.25.08-.17-.21.23-.08.1.03-.03.06-.07.09-.1s.06-.07.1-.1c.18-.17.06,0-.05.03.09-.03.19-.12.27-.17.3-.15-.22.06.02,0,.09-.02.18-.05.27-.07.24-.06-.09.01-.12.01.06,0,.13-.01.19-.01.11,0,.22,0,.33,0,.05,0,.1,0,.14,0,.26.01-.08,0-.11-.02.22.09.48.1.7.18.05.02.09.03.14.05.13.05.11.12-.09-.04.07.05.18.09.26.13.19.1.37.23.55.35.13.08-.13-.1-.13-.1.02.03.1.08.13.11.08.07.15.13.22.21.14.14.27.3.41.45.13.14-.18-.26-.08-.1.02.04.05.07.08.11.06.08.11.17.17.25.11.19.21.38.3.57.11.23-.12-.34,0,0,.03.08.06.16.08.24.06.2.12.41.16.62,0,.05.01.12.03.17,0,0-.02-.35-.03-.19,0,.1.02.2.02.29,0,.19,0,.39-.02.58-.01.25.07-.36,0-.03-.02.09-.04.19-.06.28s-.06.18-.09.28c-.09.31.14-.26-.01.02-.09.16-.18.32-.28.47-.12.19.24-.27.04-.06-.06.07-.13.13-.19.2-.03.03-.07.06-.1.09-.1.1.19-.14.17-.13-.07.04-.13.09-.2.14s-.14.08-.21.12c-.13.07-.4.13.04,0-.14.04-.28.1-.43.14-.08.02-.16.04-.24.05-.35.07.29-.02.05,0-.19.01-.37.03-.56.02-.09,0-.19-.01-.28-.02-.06,0-.2-.02.06,0,.28.04.06,0,0,0-.18-.03-.36-.08-.53-.14-.14-.05-.36-.2.04.03-.08-.04-.16-.08-.24-.12-.07-.04-.13-.08-.2-.12-.04-.02-.07-.05-.11-.07-.13-.08.25.23.15.11-.12-.13-.25-.24-.37-.37s.2.3.12.15c-.02-.04-.05-.07-.07-.11-.05-.07-.08-.16-.13-.23-.07-.12.09.22.08.21-.01-.05-.04-.11-.06-.16-.03-.1-.05-.2-.07-.3-.15-.77-1.12-1.28-1.85-1.05-.82.27-1.21,1.02-1.05,1.85.41,2.12,2.56,3.32,4.58,3.35,2.24.03,4.24-1.36,4.83-3.55s-.29-4.78-1.98-6.31c-1.98-1.78-5.36-2.4-7.18-.05-1.91,2.48.06,5.78,1.8,7.73.52.59,1.6.57,2.12,0,.58-.63.56-1.49,0-2.12h0Z"/>
    <path class="cls-1" d="m7.85,72.37c-.13-.02-.26-.05-.38-.09-.05-.01-.44-.16-.13-.02-.2-.08-.37-.2-.56-.31-.23-.13-.06-.04,0,0-.1-.08-.2-.17-.29-.26s-.18-.19-.27-.28c-.21-.22.09.18-.08-.11-.11-.19-.22-.38-.33-.56-.21-.35.07.26-.06-.12-.04-.1-.07-.21-.1-.31s-.06-.21-.08-.32c-.01-.05-.07-.48-.03-.12-.03-.26-.02-.52-.01-.78,0-.28,0-.06,0,0,.02-.13.05-.26.08-.38.03-.11.07-.22.11-.34.08-.24-.16.29.04-.09.11-.21.23-.4.35-.6.22-.36-.18.17.11-.14.11-.12.22-.24.34-.36.08-.08.17-.16.26-.24.32-.28-.22.12.15-.11.2-.12.4-.25.61-.36-.02.01.4-.19.21-.1s.24-.09.22-.08c.27-.09.55-.15.82-.22.43-.1-.28,0,.16-.02.09,0,.19-.01.28-.02.14,0,.28,0,.43,0-.04,0,.46.05.26.02.47.07.85.22,1.31.49.39.23-.07-.08.12.09.1.09.18.18.27.27.27.27-.09-.2.09.12.04.07.09.16.13.22.21.31-.05-.25.05.11.03.1.06.2.09.3s.05.21.06.31c-.06-.36,0,.09,0,.17,0,.11,0,.22,0,.32,0,.41.08-.28-.01.12-.05.22-.09.44-.16.65-.03.11-.07.22-.11.32-.09.25.16-.31-.04.09-.12.26-.25.51-.4.75-.12.2-.26.4-.4.59.18-.23-.12.13-.13.14-.09.11-.19.21-.29.31-.16.17-.34.32-.52.48-.33.29.15-.11-.09.07-.16.12-.33.23-.49.33-.6.37-.99.57-1.65.74-.53.14-1.02.16-1.45.04-.47-.12-.71-.25-1.07-.62-.02-.02-.29-.38-.13-.13-.08-.12-.15-.24-.21-.36.14.27-.03-.13-.05-.16-.04-.18-.04-.18-.02-.01,0-.09-.01-.19-.01-.28,0-.81-.68-1.5-1.5-1.5s-1.51.69-1.5,1.5c.02,1.67,1.02,3.16,2.46,3.96s3.33.86,4.92.26c2.76-1.04,5.22-3.44,5.74-6.44.27-1.56,0-3.07-1.01-4.33s-2.72-1.89-4.33-1.96c-2.99-.12-5.98,1.85-6.87,4.73-.95,3.08,1.07,6.88,4.32,7.48.8.15,1.62-.22,1.85-1.05.2-.73-.25-1.7-1.05-1.85h0Z"/>
    <path class="cls-1" d="m14.66,68.01c-.3-.53-.6-1.06-.85-1.62-.03-.06-.06-.12-.08-.19.01.02.08.21.02.05-.05-.15-.11-.29-.16-.44-.09-.3-.17-.6-.22-.91.03.25,0,0,0-.1,0-.12,0-.24,0-.36,0-.04.02-.12.01-.15,0,0-.05.31-.02.14.03-.12.04-.24.08-.36s.08-.23.11-.35c.05-.15-.05.11-.05.12.03-.03.05-.1.07-.14.05-.11.11-.21.18-.31.03-.04.06-.08.09-.12.08-.14-.18.15-.05.07.04-.03.22-.26.25-.24.01,0-.26.16-.11.08.04-.02.08-.06.12-.08s.09-.05.13-.07c.11-.07.19,0,.05-.03-.1-.01-.1.03.01,0,.09-.02.18-.04.27-.06-.25.05.04,0,.14.01.09,0,.18,0,.27.02-.04,0-.22-.05-.06,0,.12.04.25.06.37.1.05.02.44.15.19.06-.23-.09.03.02.09.05.09.05.17.1.26.15.06.04.14.12.21.14,0,0-.25-.21-.14-.1.05.05.11.09.16.14.14.12.26.26.38.4.03.03.05.07.08.1,0,0-.19-.26-.11-.13.05.08.11.16.17.25.1.16.18.32.27.49.16.32-.08-.24,0,0,.03.1.07.19.1.29.06.18.11.36.15.54.02.1.03.2.05.3.03.16-.02-.19-.02-.18,0,.05.01.12.02.17.01.19.02.37.01.56,0,.09,0,.17-.01.26-.02.35.07-.31,0,.03-.04.18-.07.36-.13.54-.02.08-.06.16-.08.24-.02.05-.08.19.01-.02.1-.24,0,0-.03.05-.08.17-.18.32-.28.47-.02.03-.06.07-.07.1,0,0,.21-.24.1-.14-.07.07-.13.15-.2.22s-.16.13-.23.21c-.1.11.13-.1.13-.1-.04.01-.07.05-.11.08-.17.11-.34.21-.52.3-.29.15.25-.08,0,0-.08.02-.16.06-.24.08-.1.03-.19.05-.29.07-.04,0-.08.02-.13.03-.2.05.09-.02.14-.01-.18,0-.37.03-.56.03-.09,0-.17,0-.26,0-.06,0-.46-.05-.19,0s-.08-.02-.15-.03c-.11-.02-.23-.05-.34-.08-.1-.03-.2-.06-.29-.09-.06-.02-.42-.17-.19-.06s-.08-.04-.14-.07c-.1-.05-.21-.11-.31-.17-.09-.05-.17-.1-.26-.16-.05-.03-.09-.07-.14-.1-.16-.1.23.2.1.08-.16-.14-.33-.28-.47-.44-.07-.08-.14-.19-.22-.26,0,0,.18.26.11.13-.03-.05-.07-.09-.1-.14-.05-.08-.11-.17-.15-.26-.03-.05-.05-.1-.08-.15-.1-.18.04.07.05.12-.03-.22-.15-.44-.2-.67-.16-.77-1.11-1.29-1.85-1.05-.81.26-1.22,1.02-1.05,1.85.46,2.22,2.46,3.89,4.61,4.37,2.34.52,4.81-.22,6.15-2.29,1.22-1.88,1.08-4.43.04-6.36-.51-.96-1.33-1.83-2.3-2.33-1.37-.71-3.15-.91-4.49-.03s-2.09,2.46-2.11,4.06c-.03,1.78.84,3.42,1.69,4.93.39.68,1.38.97,2.05.54s.95-1.32.54-2.05h0Z"/>
    <path class="cls-1" d="m12.6,58.89c.32.23.17.15.11.08-.14-.15.09.07.08.12,0-.01-.21-.38-.07-.1.15.3-.04-.35,0,0s-.02-.2.02-.21c0,0-.09.42.01.03.02-.09.08-.19.09-.28-.04.29-.12.24-.04.13.03-.04.06-.1.08-.15.11-.22-.05.11-.09.1.02,0,.13-.14.14-.15.22-.27-.19.18-.02,0,0,0,.14-.07.14-.08,0,.07-.34.12-.14.06.02,0,.15-.03.15-.04-.01.03-.4.02-.16.03.08,0,.15.04-.03-.02-.27-.08.03.02.1.03.31.07-.08-.02-.06-.03.02-.01.18.12.18.11,0,.01-.26-.26-.06-.03.03.03.08.1.11.12.15.09-.11-.21-.03-.05.03.06.08.13.12.19.03.05.05.1.08.15-.17-.27-.03-.06,0,.06.02.07.08.46.06.24-.01-.23,0,.18,0,.25,0,.24,0,.04.01-.02-.01.09-.03.18-.05.26s-.05.17-.07.26c-.01.03-.14.37-.07.2s-.05.09-.07.13c-.03.06-.06.12-.09.18-.09.16-.18.32-.28.47s-.21.3-.32.45c0,.01-.15.19-.05.07.11-.14-.11.14-.13.17-.44.54-.92,1.06-1.47,1.5.22-.17-.09.06-.17.11-.13.08-.25.16-.39.23-.08.04-.15.07-.23.11.25-.13.07-.03,0,0-.18.05-.37.1-.55.15s.15-.03.14-.01c-.02.03-.29.02-.32.01-.05,0-.11,0-.16,0-.3,0-.03.05.03.01-.07.05-.39-.09-.47-.12-.05-.01-.27-.1-.07-.02.21.09-.06-.04-.11-.06-.06-.03-.12-.07-.18-.11-.23-.12.11.14.01.02-.03-.04-.08-.07-.11-.1-.04-.03-.07-.07-.11-.11-.07-.08-.05-.05.07.11-.04-.01-.22-.33-.21-.34.03-.05.09.32.04.07-.02-.1-.05-.2-.06-.3-.12-.78-1.13-1.28-1.85-1.05-.84.27-1.18,1.01-1.05,1.85.31,1.97,2.44,3.21,4.32,3.16,2.11-.06,3.82-1.51,5.08-3.07,1.42-1.77,2.52-3.91,1.49-6.15-.89-1.94-3.38-2.76-5.03-1.24-.7.64-1.1,1.58-1.16,2.53-.07,1.12.46,2.07,1.36,2.71.64.45,1.7.14,2.05-.54.41-.77.15-1.57-.54-2.05h0Z"/>
    <path class="cls-1" d="m16.83,57.88c1.93,0,1.93-3,0-3s-1.93,3,0,3h0Z"/>
    <path class="cls-1" d="m15.63,57.13c.11-.27-.03.05-.08.14-.07.12-.15.24-.22.36-.15.23.13-.12-.06.07-.11.11-.22.23-.34.34-.04.04-.09.08-.14.12-.16.14.2-.13.02-.02-.1.06-.2.13-.3.19-.12.07-.25.13-.37.2-.02.01-.21.09-.04.02.19-.08-.12.04-.16.06-.25.09-.51.15-.77.2-.37.08.12,0-.15.03-.17,0-.33.02-.5.03-.12,0-.25,0-.37,0-.05,0-.48-.05-.3-.02.17.03-.21-.04-.29-.06-.16-.04-.32-.08-.48-.13-.11-.04-.35-.13-.1-.03-.13-.06-.26-.12-.39-.19s-.24-.15-.37-.22c-.02-.01-.19-.13-.05-.03.16.12-.13-.12-.14-.12-.1-.09-.2-.19-.3-.29-.07-.07-.13-.14-.19-.22,0,0-.15-.19-.06-.07.05.06-.17-.26-.21-.32-.09-.14-.17-.29-.24-.44-.02-.03-.14-.3-.07-.15.06.14-.03-.08-.03-.09-.05-.16-.11-.32-.15-.48-.04-.14-.07-.28-.1-.42-.02-.09-.04-.19-.05-.29-.04-.24.02.21,0-.03-.03-.34-.04-.68-.03-1.03,0-.15.02-.29.03-.44.02-.25-.04.21,0-.04.02-.1.03-.19.05-.29.06-.32.14-.63.24-.93.02-.07.16-.44.13-.38-.06.13.04-.09.04-.09.05-.11.11-.22.17-.33.15-.28.32-.55.51-.81-.13.18.13-.15.18-.2.13-.14.27-.28.41-.41.12-.12.25-.23.39-.33-.17.13.12-.08.17-.11.31-.2.63-.38.96-.53.16-.07,0,0-.02.01.07-.03.14-.05.2-.07.16-.06.32-.11.48-.15s.32-.07.49-.11c.18-.03-.02,0-.05,0,.12-.01.23-.02.35-.03.14,0,.28,0,.42,0,.1,0,.49.06.22,0,.16.03.31.06.47.11.08.02.45.17.22.06.15.07.28.15.43.23.06.03.12.08.18.12-.19-.13,0,0,.03.03.12.11.23.22.34.34s0-.02-.02-.04c.05.07.1.15.15.22.09.13.16.27.23.41.08.15,0-.03-.01-.05.03.08.06.17.09.25.04.13.08.26.11.39.02.08.08.57.06.27.03.33.02.64,0,.97,0,.28.04-.12-.02.16-.04.18-.07.37-.12.55s-.11.36-.18.53c.09-.23-.09.19-.14.28-.09.16-.19.32-.29.48,0,0-.14.2-.05.07.09-.12-.08.1-.1.12-.58.64-1.02.97-1.85,1.36-.07.03-.14.07-.22.1.14-.06-.04.01-.09.03-.2.07-.4.14-.61.2-.41.12-.84.22-1.27.27.18-.02-.35.03-.41.03-.19.01-.38.02-.57.02-.46,0-.92-.02-1.38-.07-.81-.08-1.5.75-1.5,1.5,0,.88.69,1.42,1.5,1.5,3.68.38,8.08-.96,9.66-4.61.73-1.67.9-3.62.2-5.33s-2.19-3.06-4.05-3.39c-3.87-.68-7.48,1.98-8.71,5.56-1.13,3.32-.17,7.71,3.15,9.42,1.62.84,3.57,1.02,5.32.51,1.88-.55,3.31-1.83,4.03-3.64.3-.75-.33-1.65-1.05-1.85-.85-.23-1.55.29-1.85,1.05h0Z"/>
    <path class="cls-1" d="m15.71,46.85c-.13-.05-.27-.11-.4-.16.23.09,0,0-.04-.02-.24-.11-.48-.22-.72-.33-.21-.11-.42-.22-.62-.35-.1-.06-.2-.13-.3-.19-.14-.1-.15-.11-.04-.02-.06-.04-.11-.09-.16-.14-.09-.08-.17-.16-.26-.25,0,0-.27-.32-.14-.15s-.12-.19-.11-.18c-.07-.12-.13-.23-.19-.36.03.06.08.25,0-.02-.04-.13-.07-.26-.1-.39.01.06.01.3,0,0,0-.05.03-.5,0-.32-.04.23.06-.18.06-.18l.04-.12c-.06.16-.06.16.02,0,0,0,.22-.25,0-.02.09-.1.18-.19.28-.28-.05.04-.22.14.02,0,.12-.07.23-.14.35-.2.26-.14.06-.02,0,0,.15-.05.29-.1.44-.14.07-.02.15-.03.22-.05-.38.09-.04,0,.05,0,.19-.01.38,0,.57,0,.27,0,0,0-.06-.01.11.02.23.04.34.06.23.05.44.13.66.2-.29-.09-.11-.05-.04-.01.1.05.21.1.31.16.17.1.33.2.49.31-.27-.19-.05-.04.01.02.07.07.14.13.21.2s.14.14.2.21c.06.07.29.4.09.1.11.16.21.32.3.49,0,.01.16.35.07.14s.04.13.05.15c.06.19.1.38.14.58-.08-.37,0-.01,0,.07,0,.12.01.24,0,.36,0,.1-.08.69-.01.31-.04.2-.08.39-.13.58-.03.12-.08.23-.11.34-.02.07-.11.26.02-.02-.1.22-.21.43-.33.64-.06.1-.13.2-.2.3-.04.06-.18.21.02-.02-.13.15-.26.3-.4.44-.09.08-.18.16-.27.24-.2.18-.02.02.02-.01-.2.14-.4.27-.61.38-.04.02-.4.17-.1.06-.14.05-.27.1-.42.14s-.28.07-.43.1c.26-.05-.11.01-.18.01-.12,0-.24,0-.36,0-.07,0-.14,0-.22-.01.16.02.15.02-.03-.01-.12-.03-.23-.06-.35-.1-.1-.04-.09-.03.02.02-.09-.04-.17-.08-.26-.13-.07-.04-.14-.09-.21-.14.28.19-.11-.13-.16-.18-.19-.2-.03-.05,0,0-.09-.14-.18-.28-.25-.44.03.07.08.26.02,0-.02-.08-.04-.16-.06-.24.02.2.02.21,0,.03,0-.08,0-.17,0-.25-.03.2-.04.21,0,.03.02-.08.04-.16.07-.24.24-.75-.28-1.67-1.05-1.85-.82-.19-1.58.25-1.85,1.05-.47,1.43.04,3.03,1.07,4.09,1.16,1.19,2.85,1.49,4.43,1.24,2.55-.4,4.69-2.67,5.16-5.17.26-1.35.12-2.69-.49-3.93-.53-1.08-1.49-2-2.54-2.56s-2.32-.88-3.54-.72c-1.46.19-2.96.9-3.69,2.25-.88,1.63-.4,3.53.7,4.91,1.03,1.29,2.63,1.94,4.11,2.54.73.3,1.68-.32,1.85-1.05.2-.87-.27-1.53-1.05-1.85h0Z"/>
    <path class="cls-1" d="m21.08,41.66c-.43.07.28.02-.15.01-.11,0-.23,0-.34,0s-.23-.01-.34-.02c.34.02-.09-.02-.14-.03-.22-.05-.44-.12-.66-.18-.27-.08-.09-.03-.02,0-.17-.07-.33-.16-.49-.25-.2-.11-.39-.24-.58-.37.25.19-.1-.1-.12-.11-.07-.06-.13-.12-.2-.19-.1-.1-.19-.2-.28-.3-.19-.2-.06-.07-.02-.02-.16-.22-.31-.45-.43-.69-.02-.04-.18-.44-.07-.14-.04-.11-.08-.21-.11-.32s-.06-.22-.08-.33c-.01-.05-.05-.48-.03-.14-.01-.23-.01-.46,0-.7.01-.29,0-.08,0-.01.03-.18.07-.36.12-.54.03-.11.07-.22.11-.33.08-.24-.16.3.04-.09.11-.21.21-.41.34-.61.01-.02.28-.39.09-.15.06-.07.12-.14.18-.21.19-.21.39-.4.6-.59.32-.28-.22.12.14-.1.1-.06.19-.13.29-.19s.2-.11.3-.17c.36-.21-.25.07.15-.07.22-.08.44-.14.66-.19.28-.07.08-.02.01-.01.18-.02.37-.03.56-.03,0,0,.43.02.2,0s.2.04.2.04c.13.03.26.07.39.11.05.01.27.11.02,0,.2.09.4.2.58.33-.27-.19.06.07.09.1.24.19-.05-.15.08.09.03.06.18.41.07.09,0-.02.1.37.07.21.02.12-.02.44-.09.68-.03.1-.06.2-.09.31-.01.04-.18.44-.04.12-.1.23-.22.46-.36.68-.11.18-.23.36-.36.53.19-.25-.2.21-.26.28-.15.15-.3.3-.47.44-.03.03-.37.29-.1.09-.1.08-.21.15-.32.22-.21.14-.44.28-.67.4-.11.06-.23.11-.35.17-.31.16.18-.05-.12.05-.49.17-.98.31-1.49.4.36-.06-.06,0-.11,0-.15.01-.3.02-.45.02-.26,0-.51-.03-.77-.04-.24,0,.34.08-.05,0-.15-.03-.29-.06-.44-.1-.27-.07-.54-.16-.8-.27-.73-.3-1.68.32-1.85,1.05-.2.87.27,1.53,1.05,1.85,2.36.96,5.19.52,7.33-.8,1.13-.7,2.11-1.65,2.8-2.79.82-1.35,1.33-3.1.69-4.61-1.24-2.93-5.14-3.23-7.6-1.78s-4.04,4.59-3.15,7.44c1,3.21,4.33,5.19,7.61,4.64.8-.14,1.25-1.12,1.05-1.85-.23-.85-1.04-1.18-1.85-1.05h0Z"/>
    <path class="cls-1" d="m18.79,33.95c-1.14-.3-2.22-.56-3.17-1.21-.7-.48-1.18-1.24-1.13-1.97.02-.26-.1.28.04-.17.09-.28.06-.19.03-.12.06-.15.16-.31.26-.44,0,0,.17-.21.08-.11.38-.45.83-.85,1.28-1.23.4-.33.86-.65,1.36-.89.17-.08.27-.13.48-.19.15-.05.31-.08.46-.12.3-.07-.15-.02.18-.02.22,0,.43,0,.65.01.26.02-.33-.09.1.02.09.03.19.04.28.07.14.04.28.09.42.13.04.01.26.12.05.02.24.12.48.25.71.39.05.03.31.21.12.07.08.06.15.13.23.19.19.16.35.34.52.52.19.2.09.1.04.04.09.11.17.24.25.36.13.21.25.42.35.64-.1-.23.02.05.03.12.03.12.07.23.1.35.02.09.04.19.06.28-.06-.31,0,.14.01.18.03.59,0,.53-.16,1.11-.07.26-.02.06.01,0-.04.1-.09.19-.14.29-.09.17-.2.33-.3.49.17-.26-.19.21-.26.28-.06.06-.12.12-.19.18-.04.03-.38.31-.25.21.18-.13-.17.11-.17.11-.11.07-.22.14-.33.2-.08.04-.15.08-.23.12-.08.04-.16.08-.24.11.14-.06.16-.07.06-.03-.23.08-.45.16-.68.21-.08.02-.17.03-.25.06-.29.07.21,0-.18.03-.24.01-.47.02-.71.01-.09,0-.17-.01-.26-.02.36.03-.09-.02-.17-.04-.1-.02-.21-.05-.31-.08-.04-.01-.43-.17-.12-.03-.24-.11-.46-.24-.68-.38-.67-.45-1.66-.13-2.05.54-.43.74-.13,1.6.54,2.05,2.09,1.41,4.99,1.2,7.07-.12,2.28-1.45,3.57-4.16,2.74-6.82s-3.4-4.74-6.22-4.86c-1.5-.07-2.96.55-4.16,1.42-1.31.96-2.73,2.16-3.25,3.75-.58,1.75.16,3.68,1.44,4.92s3.13,1.83,4.86,2.28c.78.21,1.63-.26,1.85-1.05s-.26-1.64-1.05-1.85h0Z"/>
    <path class="cls-1" d="m26.22,33.01c-.13,0-.25,0-.38,0,.08,0,.27.08.04,0,0,0-.38-.13-.16-.04s-.13-.08-.14-.08c-.07-.04-.14-.09-.2-.13.29.19-.02-.03-.07-.08-.06-.06-.11-.12-.17-.18-.23-.23.08.17-.07-.09-.11-.19-.22-.36-.31-.56.13.29-.08-.28-.1-.37s-.04-.17-.05-.25c.07.31,0,.04,0-.05,0-.12.03-.78-.02-.43.03-.21.09-.41.16-.62-.08.26-.04.07,0,0,.06-.11.13-.22.2-.33.14-.21.47-.5.74-.65.1-.06.21-.12.32-.17.24-.12-.32.1.11-.05.23-.08.47-.15.71-.21.1-.02.2-.04.29-.06-.26.04.06,0,.13,0,.28-.02.56-.02.83,0,.67.04,1.68.34,2.24.83.24.21.21.19.37.47-.05-.08-.03-.1.02.11-.04-.22,0,.1,0,.16,0,.26.1-.29-.02.17-.03.11-.06.22-.09.32.07-.19-.15.3-.13.27-.08.15-.18.31-.28.45-.58.82-1.56,1.49-2.53,1.96-.89.44-2.01.68-2.88.56-.3-.04-.6-.12-.88-.23-.24-.09.27.17-.12-.06-.13-.08-.26-.14-.39-.22-.27-.17-.7-.59-.84-.81-.07-.1-.13-.21-.2-.31-.03-.05-.23-.48-.13-.24-.09-.22-.15-.46-.2-.69-.09-.39-.03.23-.01-.17,0-.14,0-.28.01-.43-.03.27,0,.03.01-.02.06-.19.11-.37.18-.55.31-.75-.33-1.65-1.05-1.85-.86-.24-1.54.29-1.85,1.05-1.21,2.97,1.05,6.25,3.85,7.22,3.17,1.11,7.14-.6,9.17-3.11,1.16-1.44,1.85-3.33.95-5.1-.72-1.42-2.4-2.28-3.89-2.6-2.94-.64-6.45.45-7.53,3.49s1.09,6.79,4.38,6.7c.81-.02,1.5-.67,1.5-1.5s-.69-1.52-1.5-1.5h0Z"/>
    <path class="cls-1" d="m27.65,27.83c-1.81-.64-3.59-2-4.31-3.77-.67-1.64-.41-3.61.74-4.82.61-.64,1.52-1.05,2.5-1.14,1.13-.1,2.26.09,3.34.42.85.26,1.73.72,2.34,1.34.08.08.16.16.22.24-.11-.14.05.07.06.08.07.11.14.22.19.34.11.24-.07-.17.02.07.02.06.08.38.05.13.01.1.01.21,0,.31,0,.03-.05.27-.01.09-.05.23-.02.15-.12.35-.26.52-.72.92-1.14,1.31-.45.42-.91.82-1.44,1.12-.24.14-.47.23-.74.29-.11.02-.34.03-.43.02-.31-.05-.37-.06-.54-.2-.2-.16.11.13-.06-.06-.07-.07-.07-.07-.01,0-.06-.09-.11-.18-.15-.28-.34-.73-1.4-.92-2.05-.54-.75.44-.88,1.32-.54,2.05.74,1.58,2.63,2.21,4.26,1.95s2.97-1.39,4.12-2.5c1.25-1.21,2.14-2.75,1.77-4.54-.31-1.5-1.47-2.67-2.72-3.45-2.64-1.66-6.5-2.16-9.34-.78s-4,4.66-3.56,7.59c.52,3.55,3.53,6.13,6.76,7.27.76.27,1.64-.31,1.85-1.05.23-.83-.28-1.58-1.05-1.85h0Z"/>
    <path class="cls-1" d="m26.27,19.42c-1.08.14-2.14.11-3.02-.07-1.12-.23-1.92-.54-2.84-1.08s-1.59-1.09-2.32-1.96c-.23-.27-.52-.73-.61-1.09.06.26.01-.44,0-.32.01-.08.11-.38.16-.46.16-.26.21-.36.32-.46.07-.08.15-.15.22-.23.28-.29-.14.06.19-.17.45-.31.89-.46,1.44-.59,1.09-.24,2.37-.21,3.54-.15.45.02.87.07,1.21.25.05.03.32.22.13.06.08.06.14.13.21.2.27.25-.06-.17.12.15.07.13.15.25.21.38-.09-.22,0,.02,0,.05.03.14.08.29.11.43.01.05.02.29,0,.05,0,.12.01.25.01.37s0,.25-.02.37c.03-.26-.01.03-.02.07-.07.26-.19.67-.26.82-.49,1.09-1.31,2.18-2.28,2.91.12-.09-.17.1-.19.12-.07.04-.42.21-.34.18-.1.04-.2.06-.3.08.29-.07-.09,0-.17,0-.37,0,.18.09-.16-.03-.28-.1.11.12-.16-.06-.25-.17-.07-.03-.03,0-.12-.13-.13-.13-.02-.01-.05-.08-.09-.16-.12-.25-.33-.74-1.41-.91-2.05-.54-.76.45-.87,1.31-.54,2.05.68,1.53,2.59,2.1,4.12,1.73,1.67-.4,2.9-1.82,3.89-3.13s1.7-2.83,1.66-4.45-.74-3.14-2.09-4.02-3.2-.83-4.79-.8-3.46.28-4.82,1.3c-1.29.97-2.32,2.49-2.18,4.17s1.25,3.04,2.45,4.11c2.51,2.24,5.98,3.43,9.34,2.99.8-.1,1.5-.61,1.5-1.5,0-.73-.69-1.61-1.5-1.5h0Z"/>
    <path class="cls-1" d="m27.89,15.37c-.13-.04-.26-.08-.38-.13.25.09.04.02-.01,0-.2-.1-.4-.21-.58-.33-.03-.02-.38-.28-.13-.08-.07-.06-.14-.11-.2-.17-.2-.18-.38-.38-.56-.58.17.2.02.03-.01-.02-.08-.11-.15-.22-.22-.34-.12-.19-.22-.39-.31-.59.03.06.09.26,0-.01-.04-.13-.09-.25-.12-.38-.02-.09-.05-.17-.07-.26-.02-.1-.07-.4-.04-.13-.03-.22-.04-.44-.03-.67,0-.13.01-.27.03-.4,0,.07-.06.28,0,0,.05-.22.11-.42.18-.63.13-.39-.15.23.06-.12.07-.11.12-.23.19-.34.05-.07.1-.15.14-.22.22-.35-.19.19.09-.11.15-.16.3-.32.46-.47.07-.06.13-.12.2-.17-.25.21.09-.06.12-.08.2-.13.41-.26.63-.36.07-.03.34-.13.06-.03.08-.03.16-.06.25-.09.21-.07.42-.11.64-.16.4-.09-.29-.01.12,0,.09,0,.17,0,.26,0,.13,0,.26,0,.39.02.32.02-.21-.07.12.02.21.06.42.11.62.19-.27-.1-.06-.03,0,0,.11.06.23.12.34.19.07.05.14.09.22.14.34.21-.18-.2.1.08.17.17.34.33.5.51.05.06.21.29.05.05.05.07.1.14.15.21.12.18.22.37.32.57.19.36-.07-.27.05.12.02.08.06.16.08.25.04.12.07.25.1.37.02.08.05.46.03.11.02.21.03.43.02.64,0,.09-.01.17-.02.26.04-.37-.02.05-.04.11-.02.08-.04.17-.07.25-.02.06-.19.42-.03.1-.1.2-.26.38-.34.58s.22-.23-.03.04c-.08.09-.16.18-.25.27s-.18.17-.27.25c-.23.21.2-.11-.09.06-.21.13-.42.25-.64.37-.06.03-.26.09.02,0-.14.05-.27.1-.41.14-.1.03-.2.05-.3.08-.14.03-.35.06-.09.03-.24.03-.49.04-.73.02-.01,0-.4-.05-.16,0,.22.03-.24-.06-.28-.07-.08-.02-.16-.05-.23-.07-.16-.06-.15-.05.02.02-.08-.03-.15-.07-.22-.11-.72-.37-1.63-.19-2.05.54-.39.67-.19,1.68.54,2.05,2.32,1.19,5.19.65,7.03-1.18s2.11-4.91.73-7.18-4.12-3.52-6.77-2.78-4.62,3.06-4.8,5.8c-.2,3.04,2.01,5.94,4.88,6.79.75.22,1.67-.27,1.85-1.05s-.24-1.61-1.05-1.85h0Z"/>
    <path class="cls-1" d="m34.63,12.81c-.13.09-.32.11.03,0,.03,0,.39-.02.15-.03.37.01.26.05.15,0l.2.08c-.05-.03-.11-.06-.16-.09.04-.02.26.26.09.06,0,0-.14-.13-.13-.14-.02.03.2.26.02-.03-.15-.25.09.29,0-.01-.08-.28.03.1,0,.11.02,0-.02-.39-.01-.09v.1c.03-.15.02-.13-.06.06-.01,0,.1-.18.11-.2.13-.28-.13.08,0-.02.07-.05.14-.14.2-.2.18-.19.02-.02-.03.02.1-.07.2-.13.3-.19s.21-.11.32-.17c.06-.03.26-.11-.02,0,.19-.07.38-.14.58-.2.46-.15.94-.27,1.41-.37.11-.02.21-.04.32-.06-.27.04.25-.02.24-.02.21-.01.43-.01.64,0-.24-.02.13.02.18.03.07.02.13.03.2.05-.01,0,.19.05.19.06-.2-.09-.23-.1-.08-.03.04.02.09.04.13.07.04.02.38.19.38.24,0-.02-.25-.23-.03-.02.06.06.12.11.18.17.05.05.09.1.14.14.02.03.21.28.07.08s.04.07.06.09c.06.08.11.17.16.26.04.07.08.15.12.22.09.17.16.12,0-.03.08.08.12.33.15.44.04.15.08.3.11.45.01.07,0,.33.02.11.03-.24,0,.09,0,.16,0,.15,0,.31,0,.46,0,.03,0,.29-.02.31,0,0,.08-.39,0-.09-.04.17-.07.33-.13.5,0,.03-.05.19-.07.19.08-.18.1-.22.05-.12-.02.05-.04.09-.07.14-.08.17-.19.32-.28.48-.14.23,0,.02.03-.03-.06.07-.12.15-.19.22-.11.13-.24.25-.36.36,0,0-.29.25-.11.1.16-.14-.18.13-.22.15-.16.1-.33.2-.5.29-.09.04-.17.08-.26.13-.1.05-.07.03.09-.04-.07.03-.14.06-.22.08-.18.06-.37.12-.56.17-.09.02-.19.05-.29.06-.04,0-.43.08-.21.04.24-.04-.13.01-.15.01-.12.01-.24.02-.35.02-.22,0-.43,0-.65-.01-.1,0-.2-.02-.29-.03.38.02.01,0-.07-.01-.23-.04-.46-.1-.68-.17-.75-.22-1.67.27-1.85,1.05s.24,1.61,1.05,1.85c2.11.62,4.58.36,6.44-.85s3.05-3.26,2.82-5.51-1.41-4.13-3.48-4.94c-1.3-.51-2.77-.3-4.09.04-1.16.3-2.33.71-3.24,1.53-1.13,1.03-1.45,2.65-.67,3.98.74,1.24,2.41,2.03,3.72,1.12.64-.45,1-1.34.54-2.05-.41-.64-1.36-1.02-2.05-.54h0Z"/>
    <path class="cls-1" d="m47.29,12.76s-.19-.36-.09-.15-.05-.15-.05-.16c-.04-.13-.1-.52-.07-.18-.02-.2-.01-.39-.01-.59,0-.09.06-.27-.01.05.03-.12.04-.23.07-.35.02-.08.04-.15.07-.23,0,0,.14-.37.05-.16s.08-.15.08-.15c.04-.07.08-.14.12-.21.08-.14.18-.28.27-.41-.18.25-.02.02.04-.03.09-.09.17-.18.26-.27.07-.07.15-.14.23-.21.05-.05.23-.15-.01,0,.15-.1.3-.2.47-.29.09-.05.18-.09.27-.13-.06.03-.27.08-.02.02.2-.05.39-.11.59-.14-.38.06.24.02.33.02s.26.06-.03,0c.08.02.16.03.24.05.1.02.64.24.31.08.18.09.35.18.51.28.07.04.13.09.19.13-.26-.19-.05-.04.02.03.13.13.26.24.38.38.05.06.1.12.15.18-.2-.25-.03-.04.01.03.11.19.23.37.33.57.04.07.07.15.1.22-.02-.05-.1-.28-.01-.02.05.17.12.34.16.52s.08.35.11.53c-.06-.37,0,.2,0,.32,0,.09-.06.71,0,.32-.03.16-.06.31-.1.47-.03.1-.06.19-.09.29-.03.09-.15.32,0,.03-.11.21-.22.42-.35.62-.06.09-.12.17-.18.26.13-.17-.08.08-.11.12-.16.18-.32.34-.5.5-.41.37-.59.5-1.09.83-.41.27-.82.52-1.26.74-.08.04-.16.08-.25.12.27-.12-.09.03-.15.05-.24.08-.48.16-.72.21-.11.03-.22.05-.33.07.26-.05,0,0-.12,0-.08,0-.17,0-.25,0-.12,0-.4-.09-.09,0-.07-.02-.16-.04-.23-.05-.3-.05.16.13-.08-.02,0,0-.32-.22-.14-.08.2.16-.28-.36-.03-.02-.48-.65-1.3-.98-2.05-.54-.64.38-1.02,1.4-.54,2.05.83,1.12,2.01,1.72,3.42,1.66,1.21-.05,2.39-.46,3.45-1.05,2.14-1.18,4.34-3.02,4.72-5.58.32-2.19-.46-4.58-2.2-6.01-1.86-1.53-4.45-1.73-6.43-.28-2.18,1.61-3.34,4.6-1.92,7.09.4.7,1.36.94,2.05.54s.94-1.35.54-2.05h0Z"/>
    <path class="cls-1" d="m43.32,12.55c-.05-.04-.46-.35-.25-.17-.14-.12-.27-.24-.4-.37s-.25-.26-.36-.41c.16.2.02.02-.01-.02-.07-.11-.15-.23-.22-.34-.09-.16-.18-.32-.26-.48-.04-.08-.08-.16-.12-.25.03.06.08.25,0-.02-.12-.37-.22-.74-.3-1.13-.05-.24.02.23,0,0,0-.09-.02-.18-.02-.27-.01-.18-.02-.36-.01-.55s.02-.36.03-.55c.02-.24-.04.23,0,0,.02-.11.04-.22.07-.33.04-.18.09-.35.15-.52.03-.09.06-.17.09-.26-.1.25-.01.03.01-.02.22-.42.34-.68.59-.89-.07.06-.16.07.07-.03-.06.03-.1.08-.18.05.07.03.27-.05.03-.01.04,0,.27.1.05,0,.27.13.56.4.77.67.46.6.95,1.58,1.22,2.31.35.94.53,1.72.48,2.66-.02.32-.1.71-.25,1.13-.07.21.11-.2,0,0-.04.08-.08.15-.12.23s-.09.15-.14.22c-.09.14.14-.14-.05.06-.15.16-.31.32-.47.47-.04.04-.22.16,0,.01-.09.06-.18.13-.28.18-.17.1-.34.2-.52.28.28-.12-.27.07-.37.1-.08.02-.17.04-.25.05.21-.04.13,0-.04,0-.08,0-.16,0-.25,0-.17,0-.23-.03-.03.01-.12-.03-.63-.22-.34-.07-.07-.04-.14-.08-.22-.12-.27-.12.15.15-.1-.07-.61-.53-1.52-.6-2.12,0-.54.54-.62,1.59,0,2.12,1.92,1.66,4.53,1.31,6.43-.2,2.11-1.68,2.47-4.52,1.81-7-.35-1.32-.96-2.65-1.73-3.78s-1.91-2.24-3.37-2.26c-2.74-.04-3.96,3.35-3.98,5.62-.02,2.6,1.27,5.11,3.45,6.53.68.44,1.66.14,2.05-.54.43-.73.14-1.61-.54-2.05h0Z"/>
    <path class="cls-1" d="m54.03,14.03c-.15-.52-.29-1.05-.39-1.58-.09-.47-.13-.88-.09-1.51.03-.43-.08.2.04-.21.03-.1.05-.2.08-.3.1-.38-.11.14.08-.21.05-.09.11-.18.16-.27.17-.32-.19.16.07-.09.06-.05.12-.12.17-.17.24-.27-.23.12.08-.06.1-.06.21-.12.31-.18.3-.19-.17.02.03-.02.1-.02.19-.07.29-.1s.2-.05.3-.07.36-.02.03,0c.21,0,.42-.02.63,0,.01,0,.41.06.18.01-.2-.04.25.06.29.07.08.02.16.05.24.07.38.09-.24-.14.11.04.19.1.36.2.54.32-.23-.15-.06-.05,0,0,.1.1.21.2.31.3.06.07.13.14.19.22-.17-.21.15.23.17.28.05.08.09.17.14.25.01.02.19.45.08.17.08.23.16.46.21.69.02.09.04.19.06.28.1.44,0-.27.03.18.02.27.03.54.02.81,0,.09-.07.68-.03.4-.04.24-.09.48-.16.71-.04.14-.09.28-.13.42-.09.27-.04.11-.01.05-.11.27-.26.53-.41.78-.08.13-.16.25-.25.37-.02.03-.18.22-.04.05-.16.19-.32.37-.5.54-.11.1-.21.2-.33.29.05-.04.2-.13-.04.03s-.48.3-.74.44c-.39.21.15-.04-.1.04-.11.04-.22.08-.34.11s-.23.06-.34.08c-.25.05.35,0-.09.01-.24,0-.47.01-.71,0,.34.03.07.01-.02-.02-.13-.04-.27-.08-.4-.12.28.09.1.05.03,0-.14-.08-.28-.16-.41-.24-.06-.04-.2-.18.01.02-.11-.09-.21-.19-.31-.29-.07-.07-.14-.15-.21-.22-.23-.24.1.18-.06-.08-.12-.21-.25-.41-.35-.63.15.33,0-.02-.02-.08-.03-.11-.06-.23-.09-.34-.09-.33-.03.2,0,0,.02-.12,0-.28,0-.4,0-.27,0,0-.02.06.03-.15.07-.29.11-.44-.02.06-.15.27-.02.04.08-.14.16-.27.25-.4.48-.66.11-1.67-.54-2.05-.76-.44-1.57-.12-2.05.54-1.65,2.26-.36,5.38,1.73,6.83,2.42,1.68,5.7.64,7.53-1.42,2.01-2.26,2.63-5.52,1.41-8.31-1.11-2.57-3.97-4.01-6.69-3.24-1.59.45-2.8,1.63-3.28,3.21-.52,1.69-.1,3.54.37,5.19.22.78,1.06,1.26,1.85,1.05s1.27-1.06,1.05-1.85h0Z"/>
    <path class="cls-1" d="m61.4,11.8c.15.2-.03-.05-.06-.11-.06-.1-.12-.21-.17-.31-.02-.04-.11-.26-.02-.03-.04-.11-.08-.22-.11-.34-.03-.09-.13-.64-.1-.37-.03-.24-.03-.48-.03-.72,0,.02.03-.45,0-.23s.05-.25.04-.23c.04-.21.11-.42.17-.62.02-.06.15-.34.04-.11.04-.09.08-.17.13-.26s.09-.17.14-.25c.05-.08.1-.16.16-.24-.08.1-.08.1-.01.02.14-.16.29-.31.45-.45-.17.15,0,0,.04-.03.1-.07.2-.13.31-.19s.21-.12.32-.16c-.08.03-.21.06.04,0,.11-.03.23-.06.34-.09.07-.02.14-.03.21-.04-.14.01-.16.02-.05,0,.21-.02.43-.03.64-.02.1,0,.19.01.29.02-.28-.02.03,0,.1.02.21.05.42.1.63.17-.02,0,.41.16.22.08-.12-.05.23.12.27.15.1.06.2.13.31.19.03.02.23.16.04.02.19.15.35.32.52.49.03.03.18.22.03.03.06.08.11.16.16.24.17.27.2.34.28.58.3.92.22,1.81-.17,2.81-.7,1.76-2.61,3.06-4.45,3.76-.54.21-1.22.5-1.74.55-.27.03-.1-.07.01.09-.12-.17-.24-.43-.3-.56-.57-1.35-.85-2.83-.91-4.29-.03-.81-.67-1.5-1.5-1.5-.79,0-1.53.69-1.5,1.5.07,1.81.41,3.61,1.09,5.28.31.77.68,1.49,1.38,1.98.86.6,1.9.58,2.87.31,2.95-.81,6.07-2.51,7.5-5.33,1.35-2.68,1.22-6.17-1.27-8.14-2.27-1.79-5.61-1.96-7.84-.01-1.18,1.03-1.81,2.53-1.98,4.05-.18,1.63.34,3.15,1.33,4.43.5.64,1.6.52,2.12,0,.63-.63.5-1.48,0-2.12h0Z"/>
    <path class="cls-1" d="m60.66,7.86c-.24-.38-.47-.77-.67-1.17-.25-.48-.27-.53-.45-1.05-.06-.19-.12-.38-.17-.57-.02-.09-.04-.19-.06-.28-.1-.43,0,.17-.02-.09-.02-.21-.01-.41-.01-.62,0-.07.05-.28,0,0,.02-.11.05-.21.08-.32.02-.08.15-.32.01-.07.04-.08.09-.15.13-.23.03-.05.17-.21,0-.02.06-.07.13-.13.2-.2.18-.2.07-.06,0-.01.09-.06.18-.11.27-.16.18-.11-.22.06-.02,0,.1-.03.2-.05.3-.08.33-.1-.16-.04.03,0,.08.01.17,0,.25,0,.08,0,.37.03.04-.01.09.01.17.03.25.05.17.04.34.1.51.15.27.08.08.03.02,0,.12.06.25.12.37.19.16.09.31.19.47.29.36.24-.11-.11.08.06.07.06.14.12.21.18.15.14.29.29.43.45-.04-.05-.15-.22.01.02.08.12.16.25.24.38.11.18.2.37.29.55.13.27.06.14.04.07.04.1.07.2.11.29.08.22.14.45.19.68.02.1.05.2.06.31.02.08.03.15.04.23-.02-.11-.02-.12,0-.01.04.44.04.88,0,1.32.02-.23-.05.28-.07.36-.06.25-.13.5-.22.74-.1.29-.05.13-.03.07-.05.12-.11.23-.18.34-.1.18-.21.35-.33.52-.15.2.23-.23-.06.07-.06.06-.12.13-.19.2s-.13.13-.2.19c-.02.02-.36.29-.12.11-.18.13-.38.26-.58.37-.08.04-.16.08-.24.13-.27.15.18-.04-.14.07-.22.07-.43.15-.65.2-.09.02-.18.04-.27.06-.32.07.21,0-.14.02-.2,0-.4.02-.61.01-.11,0-.22-.01-.33-.02.22.02.07.01-.06-.02-.22-.05-.43-.11-.64-.19-.23-.09.28.17-.07-.04-.12-.07-.24-.13-.35-.2-.69-.43-1.65-.15-2.05.54-.42.72-.15,1.62.54,2.05,2.01,1.26,4.65,1.11,6.66-.07,2.2-1.29,3.4-3.75,3.36-6.27s-1.2-5.01-3.33-6.43-4.96-1.4-6.52.75c-1.69,2.33-.33,5.51,1.01,7.65.43.69,1.34.96,2.05.54s.97-1.36.54-2.05h0Z"/>
    <path class="cls-1" d="m68.56,13.96c-.3-.21.19.22-.05-.05-.05-.06-.11-.1-.16-.16s-.1-.11-.15-.17c.24.29.02,0-.02-.06-.08-.13-.15-.26-.21-.4.16.35.01.01,0-.06-.03-.11-.06-.22-.09-.33-.02-.07-.03-.15-.04-.22.07.35.01.1,0,0,0-.17-.01-.34,0-.51,0-.03.07-.38.01-.14s.03-.12.04-.14c.03-.12.22-.62.07-.29.08-.17.18-.33.27-.5.17-.31-.14.14.01-.02.07-.07.13-.15.2-.22.06-.06.12-.11.17-.16.27-.26-.17.09.02-.02s.37-.23.57-.34c.24-.13.03-.01-.03,0,.11-.04.23-.08.34-.12.15-.05.31-.08.47-.11.38-.09-.31,0,.08-.01.08,0,.16-.01.24-.01s.16,0,.24,0c.04,0,.51.03.28.01-.24-.02.15.03.16.03.08.02.16.04.24.06.1.03.19.06.29.09.09.03.32.15.03,0,.17.09.34.17.5.28.09.06.18.12.26.18-.26-.19.06.07.09.09.16.15.3.3.44.46.05.05.14.23,0,0,.06.09.12.18.18.27.1.16.19.34.28.51.19.36-.05-.18.03.06.04.12.09.24.13.37.06.19.11.37.15.56.01.06.06.48.02.11,0,.09.02.17.02.26.01.21,0,.42,0,.63,0,.09-.06.27.01-.06-.02.11-.04.22-.07.33-.04.18-.12.36-.17.54.1-.35-.05.1-.11.21-.08.15-.17.3-.27.44,0,.01-.24.3-.09.12.14-.17-.15.17-.18.2-.13.14-.27.27-.41.4-.01.01-.31.23-.11.1.18-.13-.18.12-.22.14-.16.1-.32.18-.48.27-.3.16.21-.04,0,0-.1.02-.21.07-.31.1-.09.02-.17.04-.26.06-.33.09.33,0-.02,0-.19,0-.38-.01-.57,0-.2.01.35.1.04,0-.1-.03-.2-.06-.3-.08-.25-.07.01,0,.06.03-.13-.07-.26-.14-.39-.21-.66-.42-1.68-.16-2.05.54-.39.74-.17,1.61.54,2.05,2.02,1.27,4.47.61,6.17-.86s2.46-3.84,2-6.09-2.33-4.52-4.72-5.02-4.94.35-6.22,2.45c-1.42,2.33-.72,5.47,1.48,7.03.64.45,1.7.14,2.05-.54.41-.77.15-1.57-.54-2.05h0Z"/>
    <path class="cls-1" d="m80.03,19.2c0-.17,0-.11-.03.17-.05.17-.13.31-.25.44l-.2.15c.13-.07.07-.05-.18.06.32-.12-.17.01-.07,0,.34-.02-.32-.07-.05-.01.12.03.34.14-.05-.04.34.16-.13-.17.03,0,.18.19-.17-.3-.04-.06-.09-.24-.11-.29-.07-.14l-.03-.19c0,.18,0,.17.03-.02-.02.08-.04.16-.06.24.05-.26,0,0-.07.1-.05.07-.09.15-.15.22.08-.11.09-.13.02-.04-.12.1-.22.23-.33.34-.23.22-.48.42-.73.62-.11.09-.23.18-.35.27.2-.15-.18.14-.23.17-.26.19-.52.37-.79.53-.15.09-.29.17-.44.25-.05.03-.49.22-.23.12-.31.12-.64.22-.97.27.24-.04.05-.01-.09-.01-.04,0-.49-.02-.26,0s-.21-.05-.25-.06c-.11-.03-.22-.07-.33-.11.36.12-.08-.05-.16-.1s-.34-.26-.06-.02c-.08-.07-.16-.15-.24-.22-.11-.12-.1-.11.03.05-.04-.06-.08-.12-.12-.18-.09-.16-.06-.29-.03-.03-.02-.07-.04-.14-.06-.21.02.22.02.24,0,.07-.06-.78-.65-1.54-1.5-1.5-.76.03-1.56.66-1.5,1.5.13,1.7,1.23,2.91,2.78,3.51s3.17.22,4.56-.52c.74-.39,1.41-.91,2.07-1.43s1.22-1,1.71-1.65c1.01-1.34,1.05-3.32-.49-4.27s-3.79-.26-3.82,1.73c-.01.78.7,1.54,1.5,1.5s1.49-.66,1.5-1.5h0Z"/>
    <path class="cls-1" d="m79.56,21.23c-.1-.06-.19-.12-.29-.18-.32-.18.21.21-.06-.04-.17-.16-.32-.32-.48-.48.25.27,0,0-.04-.06-.06-.09-.12-.19-.18-.29s-.1-.2-.16-.3c-.13-.26.06.25-.04-.12-.06-.2-.12-.4-.16-.61l-.02-.11c-.03-.17-.02-.15,0,.06-.04-.07-.02-.26-.02-.34,0-.11,0-.23,0-.34v-.11c.03-.17.02-.15,0,.06-.05-.21.15-.51.19-.71s-.17.29,0,0c.06-.1.11-.2.17-.3s.12-.19.19-.28c-.22.3,0,0,.06-.04.08-.08.16-.16.24-.24.05-.05.35-.27.05-.05.22-.16.45-.28.68-.42.06-.04.26-.11-.05.01.11-.04.21-.08.32-.12.17-.06.48-.19.67-.16l-.17.02c.08,0,.15-.02.23-.02.11,0,.23,0,.34,0,.08,0,.26-.02.34.02-.21-.03-.23-.03-.06,0,.07.01.15.03.22.05.11.03.63.24.29.07.21.1.4.22.6.34.32.2-.2-.21.06.05.08.08.17.16.25.24s.16.17.23.26c-.25-.28.06.09.11.17.11.16.19.34.28.51.18.34-.08-.29.03.07.03.11.07.22.1.33s.05.23.08.34c.09.37,0-.32,0,.06,0,.27.02.54-.01.81.04-.4-.06.19-.09.28,0,.02-.17.46-.05.17-.06.13-.12.26-.19.38s-.15.24-.23.36c-.23.37.17-.17-.11.15-.22.25-.45.47-.69.69-.31.28.23-.13-.12.09-.07.05-.15.1-.22.15-.22.14-.46.27-.7.38.31-.13-.1.03-.14.04-.12.04-.25.08-.38.11s-.26.06-.38.08c.37-.06-.17,0-.25,0-.13,0-.26-.01-.38-.02.33.01-.03-.01-.11-.03-.13-.03-.25-.07-.37-.11.3.09-.09-.05-.16-.09-.1-.06-.36-.13-.04,0-.11-.04-.23-.21-.31-.29-.06-.07-.24-.34-.03-.02-.08-.12-.16-.23-.23-.36,0-.01-.1-.16-.1-.19.08.2.09.22.03.07-.02-.07-.05-.13-.06-.2,0-.03-.09-.29-.07-.3.03.23.03.26.01.09,0-.07,0-.14,0-.2,0-.02,0-.3.01-.3-.03.23-.04.27,0,.1.01-.07.03-.13.05-.19.07-.32-.17.26,0-.01.05-.08.32-.43.06-.12.5-.6.63-1.54,0-2.12-.56-.51-1.58-.64-2.12,0-2,2.39-.71,5.99,2.11,7.03,2.97,1.1,6.52-.93,7.75-3.68.61-1.35.73-2.89.21-4.3s-1.42-2.58-2.72-3.27c-2.61-1.38-5.88-.41-7.54,1.96-1.86,2.65-.71,6.63,2.02,8.19.68.39,1.67.18,2.05-.54s.19-1.64-.54-2.05h0Z"/>
    <path class="cls-1" d="m87.89,23.88c-.07-.26-.01.06,0,.1,0-.05.02-.35-.02-.08-.03.24,0,.04.02-.02.06-.19-.11.29-.04.11.02-.05.15-.22.01-.04-.16.2.05-.03.07-.06.08-.09.19-.09-.07.05.07-.04.15-.09.22-.13.05-.03.25-.13.05-.04-.22.11.09-.02.12-.03.15-.04.5-.04.12-.05.13,0,.29,0,.42,0-.28.02-.21-.05-.09,0,.1.03.2.06.3.09l-.08-.03c-.11-.05-.11-.04,0,.02,0-.02.28.25-.02-.03.13.12.26.24.38.38-.18-.21.09.16.14.24,0,0,.18.38.1.18-.07-.17.06.17.07.2.06.17.1.35.14.53.02.11.04.23.06.34.04.24-.02-.22,0,.02.03.42.05.84.04,1.27,0,.38-.04.77-.08,1.15,0,.06-.05.29,0,0-.02.09-.03.18-.04.27-.04.22-.09.45-.14.66-.05.17-.1.35-.16.51-.03.08-.06.17-.09.25.1-.26.02-.05,0,0-.08.15-.16.31-.25.45-.05.07-.09.14-.14.21.18-.26-.04.03-.09.09-.06.06-.42.35-.18.18-.07.05-.14.1-.22.14,0,0-.38.19-.19.11.16-.07-.1.03-.14.04-.09.03-.18.04-.26.07-.21.07.22,0,0,0-.14,0-.27.01-.41,0-.04,0-.33-.02-.14,0s-.1-.02-.14-.03c-.21-.04-.41-.11-.61-.18-.05-.02-.25-.12-.03-.01-.09-.04-.17-.08-.25-.13-.21-.11-.41-.24-.6-.38.06.04.17.16-.03-.03-.08-.08-.17-.16-.26-.24-.07-.07-.13-.14-.2-.21-.05-.06-.1-.12-.15-.18.06.08.06.08,0,0-.29-.39-.54-.83-.75-1.27-.13-.26-.17-.37-.22-.5-.09-.24-.19-.49-.27-.74-.17-.5-.32-1-.47-1.5-.23-.75-1.06-1.3-1.85-1.05s-1.29,1.04-1.05,1.85c.72,2.38,1.57,4.83,3.63,6.39s4.83,1.72,6.75-.02c1.65-1.49,2.04-4.01,2.06-6.12.02-2.28-.69-5.05-3.12-5.84s-5.45,1.19-4.71,3.85c.21.76,1.07,1.3,1.85,1.05s1.27-1.04,1.05-1.85h0Z"/>
    <path class="cls-1" d="m87.8,32.95c-.21-.09-.39-.2-.59-.31-.07-.04-.2-.18.04.04-.08-.07-.17-.14-.24-.22-.07-.07-.41-.51-.19-.19-.12-.18-.24-.36-.34-.56-.04-.07-.16-.41-.03-.05-.02-.07-.05-.14-.08-.21-.07-.21-.12-.43-.17-.65-.02-.08-.02-.28,0,.07,0-.11-.02-.22-.03-.34-.01-.23,0-.45.01-.67.02-.37-.08.32,0-.04.02-.07.03-.15.05-.22.04-.18.1-.35.17-.53-.13.36,0,.03.03-.05.05-.1.11-.19.17-.29.04-.06.08-.12.12-.18-.22.32.07-.07.14-.13.06-.06.12-.11.18-.17.27-.28-.24.14.08-.07.17-.11.34-.22.52-.31.06-.03.42-.16.09-.05.08-.03.15-.06.23-.08.12-.04.24-.07.35-.1.04-.01.5-.09.29-.06-.24.04.16-.01.17-.01.12,0,.25-.01.37-.01.21,0,.41.01.62.04-.37-.04.23.06.34.08.12.03.24.07.36.11s.35.14.11.03c.21.09.41.2.6.32.09.05.17.11.26.17.32.22-.19-.2.09.07.15.15.3.29.44.45.28.3-.13-.23.09.12.07.11.14.22.21.33s.12.23.18.35c.13.25.03.06,0,0,.09.25.17.5.23.75.02.09.04.17.06.26.01.06.05.48.02.12.02.27.04.53.03.8,0,.11,0,.22-.02.33,0,.08-.05.37,0,.06-.03.22-.08.44-.13.65-.07.26-.15.51-.25.76.02-.06.12-.25-.01,0-.08.16-.16.32-.25.47-.05.08-.09.15-.14.22-.05.07-.1.15-.15.22.1-.12.09-.11-.03.02-.2.21-.39.42-.62.61.19-.16-.05.03-.1.07-.14.09-.29.17-.43.25-.35.19.22-.03-.17.06-.14.03-.27.08-.41.1.31-.06-.1,0-.15,0-.13,0-.37-.09-.11,0-.12-.04-.25-.07-.37-.1.28.08-.03-.02-.11-.07-.06-.03-.34-.28-.11-.06-.09-.09-.18-.17-.26-.27.21.27-.01-.06-.04-.11.16.3-.02-.14-.03-.24-.13-.78-1.13-1.28-1.85-1.05-.84.27-1.19,1.01-1.05,1.85.25,1.48,1.59,2.64,3.02,2.95,1.62.35,3.19-.28,4.4-1.35,2.09-1.84,2.87-5.04,2.08-7.68s-3.2-4.52-6.03-4.7c-2.67-.16-5.27,1.41-6.05,4.02s.31,5.84,2.87,6.95c.72.31,1.64.24,2.05-.54.34-.65.23-1.72-.54-2.05h0Z"/>
    <path class="cls-1" d="m93.48,37.94c.21-.93.4-1.91.87-2.75.4-.71.92-1.19,1.67-1.28-.23.03.43.04.21,0,.18.03.16,0,.35.14s.38.41.51.7c.32.71.48,1.67.61,2.49,0,.02.04.29.02.09.01.11.03.22.04.33.02.19.04.39.05.58.03.44.04.88.03,1.33,0,.19-.02.38-.03.57,0,.11-.02.22-.03.32,0-.07.04-.23-.01.08-.07.41-.16.82-.3,1.21-.03.1-.07.19-.1.29.01-.03.08-.17,0-.01-.08.18-.18.35-.28.52-.03.05-.29.42-.15.24-.14.17-.3.33-.46.48-.05.05-.11.1-.17.15.17-.13-.04.02-.06.03-.18.11-.37.24-.57.32-.32.13-.69.17-1.04.17-.81,0-1.63-.36-2.16-1.06-.46-.61-.65-1.54-.5-2.23.17-.79-.23-1.62-1.05-1.85-.74-.2-1.68.25-1.85,1.05-.61,2.91.94,5.85,3.79,6.8,2.6.87,5.47-.32,6.84-2.65,1.16-1.98,1.28-4.45,1-6.67-.3-2.44-.94-5.82-3.84-6.34-1.61-.29-3.32.41-4.37,1.64s-1.54,2.89-1.9,4.5c-.18.79.24,1.62,1.05,1.85.75.21,1.67-.25,1.85-1.05h0Z"/>
    <path class="cls-1" d="m96.51,44.29c.03-.65.22-1.58.51-2.12.05-.1.12-.2.18-.3.13-.2-.23.21.05-.07.06-.06.12-.12.18-.18-.07.07-.22.09,0,.02.32-.12-.04,0-.03,0,.15.05.11-.04-.04-.02,0,0,.4-.05.19-.01-.06,0,.06.02.05.02.21.06-.14-.11.03.01.06.04.23.28.09.07.05.08.25.51.18.31.21.56.2.7.19,1.22-.01.88-.23,1.86-.58,2.72s-.92,1.71-1.63,2.37c-.66.62-1.36.99-2.2,1.19-.69.16-1.58.14-2.29-.05-.52-.14-.56-.15-.99-.4s-.56-.32-.95-.75c-.24-.27-.13-.12-.32-.43-.14-.23-.25-.45-.33-.68-.2-.58-.27-1.06-.28-1.66-.03-1.33.25-2.6.55-3.9.18-.79-.24-1.62-1.05-1.85-.76-.21-1.66.25-1.85,1.05-.71,3.08-1.26,6.57.85,9.24,1.7,2.16,4.68,2.9,7.29,2.36,2.9-.6,5.04-3,6.08-5.67.92-2.37,1.34-6.32-1.34-7.76-1.58-.85-3.31-.19-4.3,1.19-.83,1.16-1.14,2.7-1.21,4.1-.04.81.72,1.5,1.5,1.5.84,0,1.46-.69,1.5-1.5h0Z"/>
    <path class="cls-1" d="m91.91,49.44c.18-1.01.37-2.17.76-3.04s.9-1.48,1.62-1.77c-.05.02.48-.13.4-.11s.56.03.36,0c.1.02.21.05.31.08-.19-.06.03.01.07.03.09.05.18.1.26.16-.18-.12.16.16.17.16.21.21.43.54.55.83-.06-.14.06.17.07.19.04.12.08.24.11.37.02.1.04.19.06.29-.04-.21,0,0,0,.11.01.22.02.44,0,.66,0,.1-.01.19-.02.29.03-.26,0-.01-.01.03-.04.19-.08.38-.14.57-.03.12-.07.23-.12.35-.03.08-.13.3-.05.12-.42.88-.72,1.29-1.46,1.89.18-.14-.21.15-.29.19-.17.1-.34.19-.51.28-.4.21.14-.04-.11.05-.09.03-.18.07-.28.09s-.19.06-.28.08c-.05.01-.44.09-.31.07.18-.02-.14,0-.18.01-.13,0-.26.01-.38,0-.1,0-.2,0-.31-.02-.04,0-.29-.05-.06,0-.2-.04-.4-.08-.59-.14-.1-.03-.19-.06-.29-.09-.3-.1.05.05-.21-.09-.23-.12-.45-.24-.67-.38-.09-.06-.17-.11-.25-.17.18.13-.18-.15-.18-.15-.41-.36-.67-.67-.87-.98-.3-.46-.41-.71-.53-1.09-.04-.12-.07-.24-.1-.37,0-.03-.07-.41-.05-.25.03.2-.02-.29-.02-.26,0-.15,0-.31,0-.46.03-.81-.71-1.5-1.5-1.5-.84,0-1.47.69-1.5,1.5-.22,5.41,6.33,9.52,10.92,6.29,2.02-1.42,3.41-3.8,3.33-6.31-.08-2.7-2.03-5.65-5.02-5.43-1.71.12-3.19,1.16-4.12,2.56s-1.23,2.99-1.51,4.56c-.14.8.21,1.62,1.05,1.85.72.2,1.7-.25,1.85-1.05h0Z"/>
    <path class="cls-1" d="m92.93,58.14c.64-1.28.76-2.64.76-4.05,0-.6-.03-1.22.04-1.82-.03.25,0,0,.01-.04.03-.12.05-.25.08-.37s.07-.24.11-.36c0-.01.18-.43.07-.2.1-.21.22-.44.37-.62-.19.25.44-.33.14-.14.08-.05.15-.09.23-.14-.24.13,0,0,.09-.02.27-.05-.4.03.11-.01.32-.03-.09-.06.21.03.44.13-.1-.07.14.05.11.06.23.13.33.21-.15-.11.06.06.07.07.11.12.23.23.34.36-.04-.05-.12-.18.07.09.08.11.15.23.22.35s.13.24.2.36c0,0,.19.44.09.2.18.46.32.95.42,1.44.02.1.04.2.05.3-.04-.26,0,.06,0,.12.02.27.04.55.03.83,0,.25-.02.5-.04.75,0-.07.05-.26,0,.04-.02.12-.04.24-.07.36-.05.22-.1.43-.17.64-.04.14-.09.28-.15.41.09-.24-.06.13-.08.17-.11.21-.23.42-.36.62-.05.08-.11.16-.16.24.15-.2-.04.04-.08.09-.15.16-.3.31-.46.46-.31.3.2-.11-.16.13-.11.07-.21.14-.32.2-.07.04-.15.08-.22.12-.34.18.27-.06-.1.04-.18.05-.36.1-.54.15-.08.02-.37.05-.04.02-.08,0-.17.02-.25.02-.26.02-.5,0-.76,0-.28,0-.04,0,.02,0-.15-.02-.29-.05-.44-.09-.23-.05-.44-.13-.66-.2-.27-.09-.04-.02.01,0-.13-.06-.26-.13-.39-.2-.1-.06-.61-.42-.36-.21-.19-.15-.35-.33-.52-.5-.05-.05-.16-.22.01.03-.07-.1-.13-.19-.19-.3s-.11-.21-.16-.31c.11.23.03.05-.01-.09-.02-.08-.04-.16-.06-.23-.03-.17-.03-.16,0,.04,0-.08-.01-.17-.02-.25-.04-.81-.66-1.5-1.5-1.5-.78,0-1.54.69-1.5,1.5.12,2.56,2.08,4.5,4.5,5.1,2.59.65,5.12-.26,6.72-2.38s1.89-5.12,1.16-7.64c-.39-1.34-1.08-2.7-2.17-3.6-1.26-1.04-2.99-1.38-4.45-.52-1.34.8-2.09,2.35-2.31,3.85-.14.91-.11,1.83-.11,2.75,0,.77-.02,1.5-.35,2.16-.36.72-.19,1.63.54,2.05.67.39,1.69.19,2.05-.54h0Z"/>
    <path class="cls-1" d="m93.82,64.79c.24-.28.49-.55.76-.81.14-.13.29-.27.44-.39.07-.06.13-.11.2-.17-.16.14-.04.03.06-.04.61-.45,1.28-.83,1.98-1.13-.29.12.18-.06.25-.09.17-.06.34-.1.52-.14-.28.06-.08.02,0,.01.34-.02,0,.02-.01-.02l.12.03c-.13-.06-.16-.07-.07-.03.1.06.06.03-.1-.09l.07.06c.14.24-.01-.11-.05-.08,0,0,.09.14.1.16.17.25-.04-.22-.02-.04,0,.06.04.13.05.2s.02.14.04.2c.05.19,0-.28-.01-.08-.02.17.02.36.02.54,0,.31-.03.62-.06.93-.02.16-.03.31-.05.47,0,.07,0,.18-.03.24.11-.31,0-.04-.01.08-.1.66-.26,1.31-.5,1.94.13-.34-.04.07-.09.16-.08.15-.17.29-.26.43-.21.3.13-.13-.12.14-.05.06-.1.11-.16.16-.04.04-.34.27-.14.14s-.16.08-.19.1c-.15.11.3-.09.12-.04-.07.02-.14.05-.21.07-.06.02-.11.03-.17.04-.15.04-.13-.06.14-.01-.13-.02-.31.02-.44.02-.04,0-.15-.02-.18-.01.08-.03.36.07.09,0-.14-.03-.28-.07-.43-.11-.06-.02-.24-.1-.02,0,.24.1,0,0-.05-.03s-.1-.05-.15-.08c-.23-.14-.05-.08.03.04-.02-.03-.31-.25-.29-.28.02-.03.2.35.1.12,0,0-.12-.2-.11-.2l.05.11c.05.13.06.14.02.04-.01,0-.08-.37-.02-.03.05.27.01.03.02-.04.01-.28-.07.37,0,.07.17-.76-.23-1.66-1.05-1.85-.76-.17-1.66.23-1.85,1.05-.43,1.93.88,3.53,2.69,4.04.79.22,1.71.25,2.5,0,1.01-.32,1.77-1.02,2.37-1.87,1.07-1.52,1.29-3.53,1.42-5.33.07-.93,0-1.92-.44-2.76-.56-1.07-1.73-1.66-2.93-1.54s-2.39.69-3.41,1.33-1.9,1.39-2.66,2.28c-.51.6-.63,1.54,0,2.12.56.51,1.58.64,2.12,0h0Z"/>
    <path class="cls-1" d="m93.56,61.9c.06-.09.13-.18.19-.27.15-.22,0,0-.03.03.11-.17.27-.33.41-.48.27-.3.57-.58.88-.84.05-.04.36-.27.06-.05.06-.04.12-.09.19-.13.17-.12.35-.23.53-.34.16-.09.33-.18.49-.26.09-.04.28-.19,0,0,.09-.05.21-.08.3-.11.17-.06.34-.1.51-.14.06-.01.25-.08.31-.06l-.19.03c.05,0,.1,0,.15-.01.16,0,.35.03.51,0,.2-.03-.36-.08-.05,0,.1.02.2.04.3.07.06.02.25.05.29.1-.07-.09-.24-.12-.07-.02.09.05.19.1.28.16.03.02.28.22.09.05-.19-.17.16.16.21.21.05.05.09.13.14.16-.27-.2-.12-.16-.03-.02.05.07.09.15.13.22.02.04.14.3.03.06s0,.02.02.06c.02.07.04.14.06.21s.04.14.05.21c0,.04.05.34.02.06s0,.02,0,.07c0,.09,0,.18,0,.27,0,.17-.02.33-.03.5,0,.21.08-.39,0-.08-.02.07-.03.15-.05.22-.03.15-.08.3-.12.44-.02.05-.08.16-.08.22.09-.22.11-.25.04-.11l-.04.08c-.07.15-.16.3-.25.44-.04.06-.09.13-.13.19-.17.26.19-.18.04-.05-.11.1-.2.23-.31.33-.03.03-.16.11-.17.15.19-.14.22-.16.09-.07-.04.03-.07.05-.11.08-.14.09-.29.16-.44.25-.19.11.34-.11,0,0-.09.03-.17.06-.26.09-.17.05-.35.1-.52.13s-.2.13.03,0c-.08.05-.28.02-.38.03-.2,0-.4,0-.6-.01h-.11c-.17-.03-.15-.02.07,0-.07-.04-.24-.04-.32-.06-.22-.04-.43-.1-.64-.17-.11-.03-.21-.07-.32-.11-.29-.1.25.13-.05-.02-.41-.2-.79-.42-1.16-.68-.06-.04-.24-.13.04.03-.12-.07-.24-.19-.34-.29-.16-.15-.32-.31-.47-.48-.53-.58-1.59-.58-2.12,0-.57.62-.56,1.5,0,2.12,1.43,1.58,3.52,2.58,5.65,2.66s4.05-.88,5.15-2.64c1.02-1.63,1.18-3.74.37-5.48-.92-1.98-3.16-2.8-5.22-2.47-2.33.37-4.34,2.15-5.62,4.04-.44.65-.15,1.69.54,2.05.76.4,1.58.16,2.05-.54h0Z"/>
    <path class="cls-1" d="m97.89,70.12c-.31-.72-.66-1.57-.65-2.31,0-.07,0-.15.01-.22.02-.24-.05.2.01-.04.02-.06.16-.5.06-.27.04-.09.09-.17.14-.26,0,0,.14-.2.05-.09-.1.13.09-.09.12-.12.15-.16-.16.08.03-.03.03-.02.28-.17.14-.08-.12.08.07-.02.1-.02-.38-.07.45.09.03,0,.07.01.14.03.2.05.22.09-.18-.11.03.01.06.03.12.07.19.11l.12.08c-.09-.07-.09-.07-.01,0,.13.12.25.24.37.38.02.02.17.22.05.06.05.06.09.13.13.2.1.15.18.31.27.48.01.03.12.26.04.06.04.09.07.19.1.28.48,1.48.49,3.08-.32,4.39-.04.07-.08.13-.13.19-.14.21.11-.13-.05.07-.12.14-.24.27-.37.4-.06.05-.12.11-.17.16-.19.17.14-.1-.06.06-.17.12-.34.23-.53.33-.06.03-.45.2-.27.14-.17.06-.34.11-.51.15-.03,0-.34.06-.18.04.15-.02-.1,0-.1,0-.1,0-.2,0-.31,0-.04,0-.41-.04-.26-.01.14.02-.09-.02-.09-.02-.11-.03-.23-.06-.34-.1-.16-.06,0,0,.03.02-.11-.05-.21-.11-.31-.17-.03-.02-.28-.18-.14-.08.12.08-.18-.16-.18-.16-.06-.05-.39-.42-.24-.23-.12-.15-.21-.32-.3-.48-.03-.05-.11-.26-.02-.03-.03-.09-.06-.18-.09-.27s-.05-.18-.06-.27c.04.22,0,.04,0-.09,0-.07,0-.14,0-.21,0-.4-.06.24.03-.16.19-.79-.25-1.62-1.05-1.85-.76-.21-1.66.26-1.85,1.05-.57,2.44.9,4.84,3.17,5.74s4.95-.13,6.42-1.96c1.66-2.05,1.96-4.88,1.19-7.36-.69-2.25-2.91-4.72-5.51-3.79-1.33.48-2.25,1.71-2.49,3.09-.29,1.66.32,3.17.97,4.67.32.74,1.41.91,2.05.54.77-.45.86-1.31.54-2.05h0Z"/>
    <path class="cls-1" d="m99.1,77.82c.02-.34.05-.67.08-1,.01-.11-.03-.23,0,.02,0-.05.02-.13.03-.19.03-.18.07-.37.12-.55.02-.07.19-.54.06-.22.06-.15.14-.29.22-.42.03-.04.06-.09.09-.13.11-.17-.19.19-.04.06.05-.05.1-.1.15-.15.19-.19.08,0-.02,0,.06,0,.29-.19.36-.22.2-.12-.07.02-.07.03,0-.01.2-.06.2-.06.05-.02.21-.03,0-.01-.23.02,0,0,.05,0h.05c.13,0,.13,0,0,0-.13-.02-.13-.02,0,.01l.1.03s-.33-.19-.07-.02c.02.01.18.11.18.11-.04.02-.25-.24-.06-.03.03.04.07.08.11.12.15.13-.14-.22-.03-.05.04.06.08.12.12.18s.07.13.11.19c.05.09.2.27,0-.01.13.19.18.52.22.74.08.38-.01-.27.02.11.01.15.02.31.02.46,0,.14-.01.28-.02.41-.02.28.06-.32-.02.06-.03.14-.06.27-.1.4-.04.12-.16.32-.15.44,0-.04.15-.31.03-.07-.03.06-.06.12-.09.19-.06.11-.12.21-.18.31-.03.05-.29.39-.15.23.14-.15.01-.02-.01,0-.07.08-.14.15-.21.23-.09.09-.18.16-.27.25-.15.14.22-.15.05-.04-.06.04-.11.08-.17.12-.1.07-.21.13-.32.19-.06.03-.13.06-.19.1-.31.17.3-.1-.03.01-.13.05-.27.09-.4.13s-.4.04-.52.11c0,0,.31-.03.14-.02-.09,0-.18.02-.26.02-.16,0-.32,0-.47,0-.07,0-.14,0-.21-.01-.27-.02-.06-.06.03,0-.09-.06-.36-.07-.46-.1s-.38-.07-.45-.15c.01.01.32.16.07.03-.09-.05-.19-.1-.28-.15-.68-.38-1.67-.19-2.05.54s-.19,1.64.54,2.05c3.02,1.69,7.17.53,8.57-2.72.65-1.51.81-3.24.17-4.79-.38-.92-.96-1.79-1.87-2.25-1-.51-2.1-.44-3.1.03-.89.42-1.59,1.22-1.97,2.11-.46,1.06-.57,2.19-.65,3.34-.05.78.72,1.53,1.5,1.5.85-.04,1.45-.66,1.5-1.5h0Z"/>
    <path class="cls-1" d="m15.87,25.09c-.04.24-.1.48-.18.72-.05.14-.1.28-.16.42.03-.06.1-.22-.03.05-.27.57-.54,1.13-.75,1.72-.33.89-.39,1.9-.13,2.82.3,1.04.99,1.88,2.01,2.25,1.28.47,2.6-.19,3.6-.98,1.52-1.2,2.43-3.03,2.59-4.94.18-2.03-.78-3.91-2.39-5.09-1.7-1.25-4.07-1.5-5.93-.46-.68.38-.97,1.38-.54,2.05s1.32.95,2.05.54c.12-.07.46-.19.15-.09.14-.05.28-.09.42-.13.04-.01.18-.06.22-.04,0,0-.38.02-.07.01.17,0,.33,0,.5,0,.38,0-.17-.05.1,0,.15.03.29.06.44.1s.28.1.43.15c-.35-.12.1.06.2.12.13.07.25.18.38.24.18.09-.18-.17-.03-.03.05.05.12.1.17.15.11.1.21.21.32.32.04.04.07.09.11.13-.24-.25-.02-.02.03.06.08.13.15.26.23.39.04.07.09.25-.01-.05.03.08.06.15.08.23.04.14.08.27.11.41.01.05.07.3.03.1-.04-.22,0,.11.01.16.01.16.01.32,0,.49,0,.09-.08.57,0,.21-.07.34-.14.68-.27,1.01-.02.04-.12.28-.04.11.08-.16-.01.02-.03.05-.08.15-.15.29-.24.44s-.18.27-.27.41c.15-.23.06-.07,0,0-.07.08-.13.16-.2.23-.11.12-.23.24-.35.35-.06.06-.13.11-.19.16-.16.15.2-.12,0,0-.14.08-.27.18-.41.26-.23.14-.13.07-.05.04-.07.03-.14.05-.21.07-.11.02-.1.03.04,0-.1.06-.28-.11,0,.02-.21-.09.05.1.08.05,0,0-.17-.09-.17-.1,0,0,.25.17.12.08-.04-.03-.19-.2-.04-.03s0,0-.02-.05c-.03-.05-.14-.24-.04-.05s-.02-.06-.03-.12c-.02-.07-.03-.14-.05-.21-.08-.31-.01.2,0,.02,0-.08-.06-.44,0-.49-.03.02-.07.3,0,.08.03-.12.05-.23.09-.35.03-.09.06-.19.1-.28.03-.08.08-.2.02-.06.39-.94.92-1.83,1.1-2.85.13-.77-.2-1.65-1.05-1.85-.73-.17-1.7.22-1.85,1.05h0Z"/>
    <path class="cls-1" d="m11.2,39.43c-1.22,1.02-2.41,2.27-2.45,3.96s1.17,3.35,2.94,3.38c.93.02,1.79-.43,2.59-.86.65-.36,1.28-.78,1.83-1.28.61-.56,1.06-1.23,1.37-1.99.29-.7.3-1.44.17-2.18-.27-1.63-1.69-3.1-3.41-3.03-.78.03-1.54.67-1.5,1.5.04.79.66,1.53,1.5,1.5.05,0,.1,0,.15,0,.25-.02-.21-.01-.18-.03.04-.03.22.07.27.07-.02,0-.34-.18-.17-.06.04.02.08.05.12.07.11.06.09.15-.13-.11.03.03.07.06.11.1s.07.07.1.1c.16.15-.08-.11-.09-.13.04.09.11.16.16.25.03.04.05.09.07.13.06.11.02.19-.06-.15.02.11.08.22.11.33.02.09.03.18.05.27-.12-.41-.02-.19-.02-.01,0,.1-.02.21-.02.31,0-.39.05-.29.02-.17-.02.06-.03.12-.05.18-.02.05-.04.1-.05.15-.06.19.14-.27.04-.1-.06.11-.11.22-.18.32-.05.07-.17.18-.18.27.03-.15.18-.22.06-.09-.06.07-.12.14-.19.2-.08.08-.16.15-.24.23-.04.03-.37.3-.17.15s-.15.11-.19.13c-.12.08-.24.16-.36.23-.2.12-.41.24-.63.35-.11.06-.22.12-.34.17-.06.03-.13.06-.2.09-.29.14,0,.04,0,0,0,.06-.41.08-.43.12.03-.04.35,0,.07-.03.03,0,.34.09.14.02-.03-.01-.11-.04-.14-.04-.03,0,.33.13.19.07-.07-.03-.18-.14,0,.02.2.18.03.02-.01-.02-.03-.03-.06-.08-.1-.11.25.2.16.24.1.12-.02-.04-.05-.09-.08-.13-.07-.12,0-.16.06.15-.02-.1-.07-.2-.09-.3-.01-.05-.01-.11-.03-.16.03.09.02.37.03.12,0-.04,0-.08,0-.12,0-.21.09-.18-.02.09.04-.11.07-.26.1-.37.04-.15-.05.12-.06.13.05-.05.1-.2.14-.26s.07-.11.1-.17c.03-.04.21-.27.06-.09-.14.17,0,0,.04-.04.05-.06.11-.12.17-.19.1-.11.21-.22.32-.32.23-.22.48-.42.72-.63.61-.5.56-1.61,0-2.12-.64-.59-1.47-.54-2.12,0h0Z"/>
    <path class="cls-1" d="m7.32,57.66c.45-1.33-.25-2.66-1.33-3.43-1.03-.73-2.38-.85-3.51-.32-2.24,1.04-2.83,3.93-2.3,6.12s2.22,4.14,4.38,4.93c2.04.75,4.37.1,5.75-1.57.77-.94,1.25-2.01,1.38-3.22s-.3-2.36-1.06-3.31c-.49-.62-1.62-.55-2.12,0-.6.65-.52,1.46,0,2.12-.27-.34.04.11.09.19.12.19-.09-.03-.03-.1,0,0,.06.16.06.18.02.08.04.15.06.23.07.22-.08.13,0-.07-.04.11.02.35.02.48,0,.08-.02.16-.02.24,0,.21.09-.38,0-.06-.03.13-.06.26-.09.38-.02.08-.05.16-.08.23-.09.29.04-.01.02-.04.03.04-.2.38-.24.44-.04.07-.31.44-.17.26s-.16.18-.21.23c-.1.11-.23.2-.33.31-.14.15.3-.19.02-.02-.09.05-.17.11-.25.16-.06.03-.12.07-.17.1l-.09.04c-.12.05-.12.06,0,0l.09-.04c-.06.02-.12.04-.19.06-.06.02-.13.04-.19.05.02,0-.2.04-.2.04,0-.03.37-.03.04-.01-.22,0-.44,0-.66-.01.33.02-.04-.01-.18-.05-.19-.05-.38-.11-.56-.18.3.12-.07-.04-.17-.1-.09-.05-.17-.1-.25-.15-.04-.02-.36-.24-.19-.12.19.13-.12-.1-.13-.11-.06-.05-.12-.11-.18-.16-.15-.14-.28-.29-.42-.44-.04-.05-.17-.22,0,.02-.05-.07-.1-.13-.14-.2-.13-.18-.24-.38-.35-.58-.05-.09-.09-.18-.14-.27-.03-.07-.08-.26,0,.02-.06-.17-.12-.34-.17-.52s-.08-.36-.12-.53c.07.3.01.13,0,.04,0-.12-.02-.23-.02-.35,0-.2.02-.39.02-.59,0,.37.03-.12.06-.24.04-.17.1-.33.16-.5-.09.29-.06.12-.01.04.06-.1.11-.2.17-.3.02-.02.24-.28.08-.12s.12-.1.14-.14c.08-.08.27-.17,0,0,.1-.06.19-.11.29-.17-.03.02-.3.14-.06.03.26-.11-.27-.02.02,0,0,0,.2,0,.21,0-.22-.04-.25-.04-.08,0l.1.03.1.03c.16.06.13.05-.06-.03.03-.01.27.15.27.16,0,0-.27-.26-.06-.04.04.03.08.07.11.11.08.08.05.05-.07-.11.03,0,.09.14.11.17.18.25-.1-.27,0,0,.1.3-.02-.27-.01-.07,0,.12,0,.07.03-.15-.01.07-.03.13-.06.2-.25.74.29,1.67,1.05,1.85.83.19,1.57-.25,1.85-1.05h0Z"/>
    <path class="cls-1" d="m6.92,46.48c-.06-.34-.12-.68-.18-1.03-.05-.29,0-.05,0,.01-.01-.11-.03-.22-.04-.32-.02-.19-.03-.39-.04-.58,0-.17,0-.34,0-.51,0-.09.01-.17.02-.25.03-.32-.01,0,0,.02-.03-.12.08-.38.11-.5,0-.02.05-.22.08-.24-.09.2-.1.23-.03.08l.05-.09c.03-.06.15-.34.22-.35-.06.01-.19.21-.04.06.05-.05.09-.1.14-.15.07-.08.2-.25.3-.28-.19.06-.18.13-.06.05.09-.05.17-.1.26-.15.13-.07.14,0-.09.03.05,0,.13-.05.19-.06.06-.02.13-.03.19-.05.27-.07-.1.04-.11.01,0,0,.17,0,.19,0,.25-.02-.06,0-.11-.03.03.02.15.04.19.04.3.05-.24-.15-.01-.02.08.04.19.14.28.16-.03,0-.27-.25-.12-.09.03.04.07.08.11.11.16.15-.08-.1-.09-.13.02.04.06.09.08.13.03.04.05.09.08.13.15.23-.11-.34-.03-.08.03.1.07.2.09.3.01.05.02.11.03.16.03.14-.05.15-.02-.15-.02.25.01.52,0,.77,0,.12-.07.22.02-.14-.02.05-.02.12-.03.18-.02.12-.05.24-.08.35-.06.25-.15.49-.24.73-.07.2.17-.35.03-.07-.03.05-.05.11-.08.16-.05.11-.11.21-.17.31s-.12.2-.19.29c-.02.02-.12.18-.13.18.03,0,.2-.24,0,0-.23.27-.49.52-.76.75-.24.21.04-.03.04-.03,0,.02-.26.18-.28.19-.14.09-.29.16-.43.24-.18.1.26-.09.06-.02-.08.03-.16.06-.25.08-.07.02-.14.03-.2.05-.31.09.29,0,0,0-.07,0-.14,0-.2,0-.05,0-.1,0-.15,0-.12-.01-.07,0,.15.02-.02.04-.47-.14-.5-.16-.73-.3-1.68.33-1.85,1.05-.2.88.27,1.52,1.05,1.85,1.81.75,3.83-.24,5.11-1.52,1.18-1.18,1.89-2.67,2.07-4.32.17-1.53-.35-3.09-1.67-3.96-1.63-1.07-3.83-.4-5,1.03-1.56,1.91-1.28,4.3-.85,6.56.15.77,1.12,1.28,1.85,1.05.83-.27,1.2-1.02,1.05-1.85h0Z"/>
    <path class="cls-1" d="m13.24,37.49c.01-.33.02-.65.05-.98.01-.14,0-.31.04-.43-.11.34-.02.14,0,.02.02-.11.04-.21.06-.32.04-.16.08-.31.13-.46.01-.04.08-.17.07-.2.03.12-.11.24-.02.06.07-.14.15-.26.23-.4.1-.17-.26.27-.04.05.05-.05.1-.11.16-.16.03-.03.17-.12.17-.15,0,.02-.31.21-.09.07.1-.06.21-.12.31-.18.26-.16-.26.08-.07.03.07-.02.14-.05.21-.07.05-.01.12-.02.17-.04l-.23.03c.06,0,.11,0,.17,0,.04,0,.13.02.17,0-.24.07-.3-.07-.15-.01,0,0,.15.05.16.05-.17.04-.28-.16-.09-.02.05.03.11.08.16.1-.03-.01-.27-.25-.13-.09.02.03.07.09.1.1-.2-.13-.18-.26-.07-.08.02.04.04.08.07.12.11.19-.06-.14-.07-.16,0,.1.07.24.1.35.05.23-.03-.41-.01-.03,0,.13,0,.26,0,.39-.01.29.06-.32.02-.12-.01.05-.02.11-.03.16-.02.12-.05.24-.09.36-.03.11-.07.21-.1.32-.02.04-.12.31-.02.05s-.02.04-.05.09c-.1.21-.22.41-.35.61-.03.04-.06.09-.09.13-.16.23.17-.2.03-.04-.11.13-.22.26-.34.39-.11.11-.21.22-.33.33-.07.07-.22.25-.31.27l.14-.11s-.08.06-.12.09c-.07.05-.14.09-.21.14-.07.04-.37.26-.44.24,0,0,.36-.13.08-.04-.1.03-.19.06-.29.09-.06.01-.13.02-.18.04.32-.11.24-.02.06-.02-.14,0-.29-.03-.43-.01.29-.04.28.05.14.01-.08-.02-.17-.04-.25-.06-.03,0-.13-.06-.16-.05.23.1.27.12.13.05l-.08-.04c-.06-.03-.12-.07-.18-.11-.23-.13.03-.02.07.06-.02-.04-.11-.11-.15-.14-.23-.2.08.16.03.05-.02-.05-.06-.09-.09-.14-.19-.29.09.28,0,.02-.25-.74-1.04-1.31-1.85-1.05-.74.24-1.32,1.05-1.05,1.85.65,1.91,2.66,2.84,4.59,2.47,1.69-.33,3.18-1.73,4.04-3.17s1.17-3.12.5-4.63c-.36-.81-1.13-1.42-1.98-1.67-.94-.28-1.99-.07-2.82.42-.97.57-1.59,1.47-1.97,2.51-.35.97-.39,2.05-.43,3.07-.03.78.71,1.54,1.5,1.5.84-.04,1.47-.66,1.5-1.5h0Z"/>
    <path class="cls-1" d="m52.09,6.57c.01-.29.03-.59.05-.88s0,.05-.01.07c.02-.02.03-.17.04-.22.01-.06.17-.49.15-.52.04.05-.13.26-.02.06.03-.06.08-.13.11-.19.1-.21-.03.05-.08.08.04-.03.09-.1.12-.13,0,0,.14-.11.14-.12,0,.1-.26.17-.08.07,0,0,.16-.08.16-.09-.21.08-.26.1-.15.06.04-.02.08-.03.13-.04.16-.06.09.07-.14,0,.03,0,.15,0,.17,0,.1,0,.27.07-.14-.02.19.04-.04.05-.11-.07,0,.01.16.09.15.09-.02,0-.28-.24-.11-.07.13.12-.06.04-.07-.11,0,.05.08.15.11.18.11.15-.11-.36-.03-.08.01.06.04.11.05.17s.03.12.04.17c.04.16-.06.09-.01-.13-.02.1.02.25.02.36,0,.14,0,.27,0,.41,0,.13-.02.26-.03.38-.04.38.05-.3-.01.08-.05.27-.11.54-.18.8-.04.14-.09.28-.14.41-.13.35.12-.25-.03.08-.12.24-.26.47-.4.69-.13.21.04-.05.07-.08-.04.04-.08.1-.12.14-.08.09-.17.18-.26.27-.05.04-.09.08-.14.12-.18.17.05-.05.08-.06-.12.04-.24.16-.36.23-.04.02-.1.04-.14.07.24-.18.27-.1.14-.06-.1.03-.2.07-.3.09s-.21.04-.31.06c.46-.12.1-.02-.07-.02-.12,0-.23-.01-.35-.02-.19,0,.35.07.17.02-.06-.02-.13-.02-.19-.04-.13-.03-.25-.07-.37-.11-.13-.04-.1-.11.15.06-.05-.04-.11-.06-.17-.09-.06-.03-.42-.27-.19-.11s-.07-.08-.12-.13c-.16-.15.08.11.09.13-.03-.06-.09-.12-.12-.19-.03-.04-.05-.09-.07-.13-.13-.23.13.34.04.08-.25-.74-1.04-1.31-1.85-1.05-.74.24-1.32,1.05-1.05,1.85.55,1.62,1.98,2.53,3.64,2.7,1.49.15,3.01-.52,3.96-1.67,1.07-1.3,1.56-2.91,1.64-4.58.04-.83-.08-1.72-.51-2.44-.52-.88-1.51-1.48-2.55-1.4-1.14.09-2.18.75-2.74,1.75-.53.95-.62,2.03-.66,3.1-.03.78.71,1.54,1.5,1.5.84-.04,1.47-.66,1.5-1.5h0Z"/>
    <path class="cls-1" d="m72.83,8.8c-.07-.23-.13-.47-.18-.7-.03-.12-.05-.25-.07-.37-.03-.18.07-.03.02.12.02-.06-.02-.18-.02-.24-.02-.23-.02-.47-.01-.7,0-.06,0-.12.01-.18,0-.25-.01.1-.02.13.04-.12.05-.26.08-.38.02-.06.15-.43.04-.17s.06-.08.09-.13c.17-.3-.2.28,0,0,0,0,.08-.07.08-.08,0,0-.32.24-.05.06.19-.13-.35.13.02,0,.13-.04.09.04-.05,0,.07.02.2,0,.27,0-.29-.03.09.05.19.08.05.02.28.13.07.02-.21-.11.05.03.1.05.12.06.23.14.35.21.24.15-.06-.05-.06-.05.03,0,.15.12.15.13.1.09.2.19.29.29.03.03.1.14.13.15-.1-.05-.16-.23-.02-.02.08.12.4.52.38.67.02-.08-.1-.27-.04-.07.02.06.05.13.07.19.05.15.08.29.11.44.08.37,0-.27.01.1,0,.14.01.27,0,.41,0,.07-.01.14-.01.2,0,.17,0-.15.02-.15.03,0-.1.45-.12.5-.01.05-.07.15-.07.19,0-.04.16-.31.03-.08-.06.1-.11.21-.17.31-.04.06-.08.11-.11.17-.09.17.19-.2.05-.06-.11.11-.2.23-.31.34-.05.05-.1.09-.15.14-.04.03-.27.18-.09.07s0,0-.06.03c-.07.05-.14.09-.22.14-.06.03-.12.07-.18.1-.05.02-.09.05-.14.07-.1.05-.06.03.13-.05-.09.07-.27.1-.38.14-.04.01-.49.14-.49.12,0-.01.4-.03.1-.01-.08,0-.17.01-.25.01-.02,0-.45,0-.46-.02,0-.02.39.08.1.01-.1-.02-.2-.04-.3-.07-.76-.2-1.66.25-1.85,1.05s.24,1.63,1.05,1.85c3.4.9,7.23-1.9,6.86-5.54-.18-1.76-1.08-3.36-2.58-4.33-1.64-1.06-3.93-1-5.02.78-.87,1.42-.67,3.39-.21,4.91.23.75,1.06,1.3,1.85,1.05s1.29-1.04,1.05-1.85h0Z"/>
    <path class="cls-1" d="m78.83,11.87s.03-.37.01-.11.01-.08.02-.11c.02-.14.05-.28.07-.42.07-.35.15-.7.24-1.05.04-.15.09-.31.14-.46.04-.11.15-.58.06-.18.07-.29.29-.6.45-.85.02-.02.12-.2.14-.2s-.25.28-.05.08c.1-.1.2-.2.3-.3.2-.2.03.07-.05.03,0,0,.16-.11.15-.1.05-.03.11-.06.16-.09.26-.16-.29.08-.01,0,.08-.02.16-.04.23-.07.24-.08.03-.09-.06,0,.04-.04.41-.04.45,0l-.18-.03c.05,0,.11.02.16.03.06.01.23.03.27.08,0-.01-.32-.16-.05-.02.1.05.19.11.29.17.22.13.01,0-.03-.03.07.06.15.12.21.19.07.07.38.46.19.18.1.15.2.29.28.45.05.09.09.17.13.26-.11-.23-.03-.06.02.08.01.03.13.44.11.45,0,0-.02-.3,0-.05,0,.1.01.19.02.29,0,.03.02.51-.02.52,0,0,.06-.29,0-.05-.03.11-.05.23-.07.34-.05.19-.11.37-.18.55.11-.3-.03.06-.09.17-.09.17-.2.33-.31.5-.04.06-.18.2.02-.02-.08.09-.15.18-.23.26-.12.13-.26.24-.38.36-.16.16.29-.18-.02.02-.07.04-.13.09-.19.13-.15.09-.31.17-.46.25-.2.11.33-.1-.02,0-.11.03-.22.07-.33.1-.08.02-.15.04-.23.05-.06.01-.11.02-.17.03-.11.02-.08.01.11-.01-.01.05-.53.02-.58.02-.08,0-.16,0-.23-.01-.08,0-.16-.01-.23-.02l.17.02c-.16.03-.47-.1-.63-.15-.09-.03-.18-.06-.28-.09-.29-.1.22.13-.07-.03-.17-.09-.34-.18-.51-.29-.07-.04-.13-.09-.19-.13.29.2,0,0-.06-.06-.17-.16-.33-.33-.48-.51-.5-.61-1.61-.56-2.12,0-.59.65-.54,1.47,0,2.12,1.4,1.7,3.72,2.39,5.85,2.04s3.83-2.02,4.59-4.02.28-4.45-1.31-5.93c-1.67-1.55-4.14-1.64-5.82-.06-1.52,1.43-1.96,3.68-2.19,5.66-.09.78.75,1.53,1.5,1.5.89-.04,1.4-.66,1.5-1.5h0Z"/>
    <path class="cls-1" d="m88.09,18.17c-.13-.33-.24-.66-.32-1.01-.02-.07-.03-.14-.05-.21-.02-.13-.15-.36-.01-.03-.06-.15-.03-.38-.04-.53,0-.1,0-.21,0-.31,0-.21.07.02-.02.1.04-.03.09-.4.11-.46.07-.24-.04.08-.05.11.03-.08.19-.22.02-.07-.19.17.02,0,.05-.04.14-.2-.25.15-.03.03-.34.18-.18.07-.06.03.1-.03.32-.04-.04,0,.3-.03-.1.01-.09-.03l.1.02c.15.05.13.03-.08-.05.01-.02.17.12.17.1,0,0-.23-.24-.02-.01.06.06.12.13.18.19-.24-.22-.04-.04.03.06.1.17.19.34.27.51-.13-.29-.04-.1-.02-.03.03.11.08.22.11.34.05.17.09.34.12.51.02.1.03.2.05.3-.05-.32.01.14.02.16.05.47.07.95.06,1.42,0,.21-.03.42-.04.63-.01.26.07-.34-.01.09-.03.14-.05.27-.08.41-.05.22-.13.44-.2.66-.02.06-.12.25,0,.02-.05.1-.1.21-.16.31s-.12.2-.18.3c-.15.25-.04.07,0,.01-.15.18-.31.32-.48.48.22-.21.1-.07.03-.03-.1.06-.19.12-.29.18-.07.04-.14.07-.2.11-.3.16.19-.02-.01,0-.16.02-.33.11-.49.14-.1.02-.44.03-.05.02-.11,0-.22.02-.33.01-.07,0-.15,0-.22,0-.35,0,.3.1-.03,0-.06-.02-.14-.04-.21-.05-.31-.06.16.12.01.02-.11-.08-.45-.31-.19-.08-.08-.07-.16-.15-.24-.23-.17-.17.05.15-.09-.14-.04-.09-.09-.17-.13-.26.11.24-.06-.2-.07-.26-.08-.26-.13-.53-.18-.79-.02-.1-.03-.19-.05-.29-.02-.1-.03-.21-.05-.31-.03-.17-.03-.21-.02-.12.02.19-.03-.33-.03-.28-.01-.16-.02-.32-.02-.48,0-.13,0-.26.02-.39,0-.11,0-.1,0,.01.02-.1.05-.2.08-.3.02-.07.13-.27,0-.03.06-.12.12-.23.2-.34-.19.26.09-.06.12-.09-.18.17.04,0,.12-.06-.19.14-.12.02,0,0,.17-.04.16-.04-.03,0,.17,0,.17,0-.02-.02.77.14,1.65-.21,1.85-1.05.17-.73-.22-1.7-1.05-1.85-1.59-.28-3.13.52-3.82,2.01s-.44,3.2-.1,4.75c.29,1.33,1.02,2.65,2.31,3.23,1.16.52,2.5.55,3.69.08s2.25-1.34,2.86-2.55.86-2.68.81-4.09c-.05-1.29-.24-2.57-.81-3.74s-1.7-2.16-3.07-2.12c-1.44.04-2.62,1.09-2.88,2.5-.23,1.23-.05,2.53.41,3.69.29.73,1.01,1.32,1.85,1.05.7-.23,1.36-1.07,1.05-1.85h0Z"/>
    <path class="cls-1" d="m95.98,28.1c-.04-.15-.08-.31-.11-.47-.02-.08-.02-.17-.04-.25.1.44.03.19.02.06-.03-.34.03-.67,0-1,0,.02-.07.39-.02.16.02-.08.03-.15.05-.23s.04-.15.06-.22c.08-.23.12-.07-.04.09.03-.03.06-.11.08-.15.09-.19.11.02-.1.11.01,0,.13-.13.13-.14-.22.16-.27.2-.15.12.04-.02.07-.04.11-.06-.06.11-.37.14-.14.07.19-.05.1.07-.16.01.21.04.13-.12-.03-.03l.11.03c.16.05.14.04-.05-.03.13,0,.31.18.42.25.25.16-.27-.24-.05-.04.08.07.15.14.23.22.05.06.1.13.15.18-.24-.21-.16-.22-.09-.12.09.13.17.26.24.4.04.07.06.15.1.21-.21-.35-.08-.2-.04-.07.05.15.1.3.13.45.02.08.03.16.05.23.06.3-.03-.39-.01-.08,0,.13.02.27.02.4,0,.16-.01.32-.02.48-.02.29.06-.32.02-.12-.02.09-.03.18-.05.27-.03.16-.08.31-.13.46-.02.06-.05.12-.07.19-.06.19.17-.36.04-.11-.07.14-.14.28-.23.41-.04.06-.1.13-.13.19.16-.31.14-.18.04-.06s-.22.22-.33.33c-.21.2.3-.2.05-.04-.04.03-.09.06-.13.09-.07.04-.14.08-.21.12-.17.09-.25.02.05,0-.16.02-.36.11-.53.15-.15.04-.26-.03.11,0-.08,0-.17.02-.25.02-.17,0-.33,0-.5-.01-.14,0-.13-.09.15.02-.07-.03-.17-.03-.25-.05-.19-.04-.38-.11-.57-.17-.23-.08.1.04.12.05-.07-.07-.22-.1-.31-.15-.15-.08-.35-.28-.51-.32.02,0,.28.24.1.08-.09-.08-.17-.15-.26-.23-.06-.06-.12-.12-.18-.18-.11-.11-.22-.39-.04-.02-.08-.15-.2-.28-.28-.42-.04-.07-.08-.15-.12-.22-.13-.25.11.35,0,.01-.05-.18-.1-.35-.14-.53-.07-.3.02.38.01.06,0-.11,0-.23,0-.34.02-.78-.71-1.54-1.5-1.5s-1.48.66-1.5,1.5c-.06,2.02,1.26,3.91,3.04,4.79,1.92.96,4.21.87,5.84-.63,1.43-1.31,1.87-3.39,1.53-5.24-.38-2.08-2.3-4.2-4.56-3.79-1.16.21-1.95,1.28-2.19,2.38s-.18,2.2.12,3.24c.21.76,1.07,1.3,1.85,1.05s1.27-1.04,1.05-1.85h0Z"/>
    <path class="cls-1" d="m92.75,39.61l-.33-2.51c-.05-.41-.11-.82-.16-1.23-.02-.15-.02-.3-.04-.45-.04-.31-.09.34-.01.04.06-.17.03-.12-.07.17.05-.09.04-.07-.05.06-.17.22-.06.07,0,.03-.34.31-.25.18-.12.11-.42.21-.28.11-.15.07.18-.05.19.05-.17.02.04,0,.08,0,.12,0,.17,0,.22.09-.16-.03.06.02.12.03.18.04.33.1-.27-.16-.08-.03.03.02.07.04.1.06.22.13-.28-.27-.12-.08.15.17-.02.08-.08-.12.01.05.08.18.11.21-.17-.16-.09-.27-.06-.12l.02.08c.03.16.03.11-.01-.14-.01.08.01.18.01.26,0,.15-.1.47.02.04-.04.14-.06.3-.1.44-.05.17-.15.34-.18.51.05-.31.09-.22.03-.08-.03.06-.06.12-.09.18-.09.17-.18.34-.28.5-.07.12-.15.23-.23.34-.17.25.23-.27.03-.04-.05.06-.11.13-.16.19-.09.1-.19.2-.29.29-.06.06-.12.11-.18.16-.19.17.31-.22-.01,0-.11.07-.22.14-.33.21-.07.04-.15.06-.21.1.3-.21.23-.09.07-.04-.12.04-.25.07-.37.1-.29.07.39-.02.09-.01-.11,0-.21.01-.32,0-.4-.02.37.09.03,0-.06-.01-.11-.03-.17-.05-.24-.07.36.18.14.06-.09-.05-.17-.1-.25-.15-.21-.13.3.26.12.09-.06-.05-.12-.11-.17-.16-.04-.04-.08-.09-.12-.13.3.31.17.23.09.11s-.14-.24-.2-.36c-.11-.22.12.34.07.17-.02-.06-.05-.13-.06-.19-.02-.05-.03-.11-.04-.17-.07-.34,0,.36.01.12,0-.1.01-.22,0-.32.03.44-.07.35-.02.19,0-.03.02-.07.03-.1.05-.14.02-.07-.09.21.02-.03.03-.06.05-.09.02-.03.04-.06.05-.09.08-.12.04-.06-.14.18.03-.02.09-.08.11-.12.15-.16-.36.24-.07.07.67-.41.98-1.36.54-2.05s-1.33-.97-2.05-.54c-1.59.96-1.77,3.06-.81,4.55.49.76,1.19,1.35,2.06,1.63.98.31,2.05.08,2.96-.35s1.57-1.14,2.14-1.91c.53-.72.96-1.59,1.16-2.46.26-1.15.15-2.49-.74-3.35-.72-.7-1.85-1.02-2.82-.74-.6.17-1.14.57-1.44,1.12-.34.64-.33,1.31-.23,2l.46,3.47c.05.41.13.75.44,1.06.26.26.69.46,1.06.44s.79-.14,1.06-.44c.25-.27.49-.68.44-1.06h0Z"/>
    <path class="cls-1" d="m100.09,52.74c-.13-.39-.26-.77-.38-1.16-.05-.18-.1-.37-.15-.55-.03-.1-.05-.21-.07-.32,0-.04-.07-.41-.05-.28-.03-.2-.02-.75,0-1.08-.01.3,0,.02.04-.13.01-.06.03-.12.05-.17,0,0,.12-.36.05-.16-.07.19.02-.05.05-.09.04-.07.07-.14.11-.21.06-.1.27-.35.07-.13.09-.1.2-.19.28-.29.13-.16-.21.12-.03.02.08-.05.16-.1.24-.15.09-.06.22-.05-.04.01.06-.01.11-.04.17-.05.05-.01.29-.04.09-.03s.02,0,.04,0c.08,0,.16,0,.24.01-.32-.02-.12-.02-.04,0,.07.03.16.05.23.07-.12-.03-.17-.09-.02,0,.07.04.45.32.21.11.11.1.22.19.32.3.03.03.19.24.08.09-.1-.14.02.03.03.05.04.07.08.15.13.22.15.23-.02-.11.03.04s.09.3.13.46c.07.28.02.1.01.03.01.1.02.19.02.29,0,.17-.02.34-.01.51s0,0,.01-.04c-.02.14-.05.29-.08.43-.08.34-.18.67-.31.99.1-.24-.13.27-.16.31-.08.15-.16.3-.25.44-.08.13-.17.25-.24.37-.11.19.15-.17,0,0-.06.06-.11.13-.17.19-.1.11-.2.21-.31.31-.06.06-.12.11-.19.16.1-.08.13-.09,0-.02-.07.04-.14.08-.21.12-.3.19.15-.03-.03.02-.08.02-.15.05-.23.07-.12.03-.32,0-.02.02-.05,0-.12,0-.17,0-.16.03.27.08,0,0-.07-.02-.15-.04-.22-.06.18.05.15.07,0-.01-.05-.03-.1-.06-.15-.09-.25-.15.06.11-.01-.01-.03-.06-.11-.12-.16-.16-.14-.12.17.22.01-.01-.14-.2.04.07.02.07-.01,0-.06-.2-.05-.2,0,0,.02.33.03.08-.02.24-.03.17.04-.03.26-.74-.3-1.67-1.05-1.85-.84-.19-1.56.26-1.85,1.05-.79,2.21,1.51,4.41,3.67,4.21,2.31-.21,3.78-2.21,4.57-4.21s.71-4.52-.94-6.12-4.27-1.68-5.79.12c-.8.94-1.23,2.1-1.27,3.33-.04,1.33.36,2.62.79,3.86.25.74,1.04,1.31,1.85,1.05.74-.24,1.32-1.05,1.05-1.85h0Z"/>
    <path class="cls-1" d="m101.01,60.97c.09-.48.23-.95.42-1.41l-.15.36c.15-.34.32-.66.51-.98.09-.15.21-.29.3-.44-.21.36-.11.14-.03.05.07-.08.14-.17.22-.25h-2.12c.06.06.11.16.18.2-.02-.01-.22-.31-.11-.14.03.05.06.09.09.14.1.16.19.33.26.5l-.15-.36c.12.29.2.59.25.9l-.05-.4c.04.34.05.67,0,1.01l.05-.4c-.05.33-.13.66-.26.97l.15-.36c-.08.17-.16.34-.26.5-.03.05-.06.09-.09.14-.11.16.09-.13.11-.14-.07.05-.14.16-.2.22s-.13.12-.2.18c-.11.11.33-.24.12-.09-.04.02-.07.05-.11.08-.17.11-.35.2-.53.28l.36-.15c-.31.13-.63.21-.97.26l.4-.05c-.34.04-.67.04-1.01,0l.4.05c-.31-.05-.61-.13-.9-.25l.36.15c-.16-.07-.32-.15-.47-.25-.08-.05-.15-.1-.22-.15.41.27.15.11.05.02-.58-.53-1.56-.61-2.12,0-.53.58-.62,1.55,0,2.12,1.56,1.44,3.8,1.68,5.7.82,1.77-.8,2.83-2.83,2.66-4.74-.1-1.19-.53-2.29-1.36-3.16-.54-.57-1.59-.59-2.12,0-1.01,1.12-1.76,2.49-2.04,3.98-.08.4-.06.79.15,1.16.18.31.54.61.9.69.74.17,1.69-.22,1.85-1.05h0Z"/>
    <path class="cls-1" d="m103.64,66.29c0-.07,0-.42-.01-.17-.02.22,0,.07.01.02.03-.14.12-.09-.05.1.04-.04.13-.19.14-.24-.05.19-.18.2-.06.09.04-.04.11-.08.14-.13-.13.2-.21.14-.08.07.05-.02.19-.08-.01,0-.24.09-.03,0,0,0l.09-.02-.22.02c.06,0,.43.02.16-.02s.09.05.15.06c-.26-.03-.24-.12-.11-.04.04.02.08.05.11.07.16.09-.22-.21-.09-.07.03.03.06.06.1.09.19.18-.21-.23,0,.02.09.11-.07-.13-.06-.16l.03.08c.03.11.03.12.02,0,.04-.13,0-.05,0,.04,0,.04.01.23,0,.24s.07-.29,0-.1c-.02.06-.03.12-.04.18-.02.08-.05.15-.07.23,0,.02-.08.22-.02.05s-.01.02-.02.05c-.04.09-.09.19-.14.28-.22.44-.45.87-.7,1.3-.12.21-.25.41-.39.61-.03.04-.06.08-.09.12-.09.12-.13.06.05-.06-.09.06-.16.19-.23.27-.08.09-.16.17-.25.25-.05.05-.1.09-.15.13-.03.03-.17.13,0,0s.03-.02,0,0c-.06.04-.11.08-.17.11-.08.05-.28.11-.33.18,0,0,.31-.1.18-.07-.04,0-.08.03-.11.04-.09.03-.18.05-.27.07-.31.08.3,0,.04,0-.11,0-.22.01-.32,0-.04,0-.08,0-.12,0-.26-.01.04-.02.12.02-.09-.04-.22-.04-.31-.07-.04-.01-.07-.03-.11-.04-.16-.04-.14-.14.11.05-.06-.05-.16-.09-.24-.13-.27-.15.22.22,0,0-.04-.04-.28-.31-.11-.09.21.26-.12-.31,0,.01.1.26-.02-.11-.04-.19-.16-.77-1.11-1.29-1.85-1.05-.81.26-1.22,1.02-1.05,1.85.3,1.45,1.66,2.39,3.06,2.58,1.49.2,2.85-.35,3.9-1.41s1.8-2.49,2.35-3.85c.32-.81.45-1.75.13-2.58-.36-.93-1.07-1.6-2.01-1.93-1.98-.7-4.16,1.04-4.04,3.11.05.78.66,1.54,1.5,1.5.77-.03,1.55-.66,1.5-1.5h0Z"/>
    <path class="cls-1" d="m104.9,74.69c-.02-.24-.03-.49-.02-.73,0-.12.02-.25.03-.37.01-.16.08-.09-.02.12.03-.06.03-.16.04-.23.05-.24.11-.48.19-.72.01-.04.03-.09.05-.13.08-.24-.03.09-.05.11.08-.07.15-.3.2-.39.03-.05.06-.1.09-.15.07-.11.15-.1-.08.1.08-.07.15-.17.22-.25.04-.04.29-.28.1-.1s.16-.06.2-.1c-.13.15-.29.1-.13.06.05-.02.11-.03.16-.05.03,0,.13-.02.17-.04-.18.11-.31.02-.13.02.06,0,.13,0,.19,0,.22,0-.07.08-.12-.02,0,0,.19.05.18.05.25.05-.2-.12-.05-.03.1.06.22.13.33.19.17.09-.21-.2-.08-.06.04.05.1.09.14.13s.09.1.13.14c.11.11-.08-.1-.08-.11.05.14.18.29.26.42.11.21-.05-.09-.03-.09,0,0,.07.2.06.19.04.12.04.27.09.38,0,0-.02-.31-.03-.16,0,.06,0,.13,0,.2s0,.13,0,.2c0,.18.07-.31,0-.04-.03.13-.07.26-.11.4-.07.25,0-.04.04-.07-.03.03-.06.14-.09.18-.06.12-.13.24-.21.35-.03.04-.11.13-.12.17.04-.13.16-.2,0-.02-.09.1-.19.21-.29.3-.04.04-.38.33-.21.19s-.14.1-.19.13c-.15.1-.3.19-.46.27-.06.03-.13.06-.19.09-.24.12.18-.06-.01,0-.18.06-.36.13-.54.19-.37.11-.74.19-1.12.25-.08.01-.17.03-.25.04.36-.04-.07,0-.11,0-.19.02-.39.04-.58.05-.41.03-.82.05-1.22.07-.78.04-1.54.66-1.5,1.5.04.78.66,1.54,1.5,1.5,1.87-.09,3.76-.22,5.46-1.06,1.46-.72,2.77-2.11,3.11-3.74.37-1.78-.36-3.6-1.88-4.61-1.44-.96-3.46-.64-4.6.63s-1.55,3.01-1.42,4.64c.07.78.64,1.54,1.5,1.5.76-.03,1.57-.66,1.5-1.5h0Z"/>
    <path class="cls-1" d="m29.8,19.33c-.22-.76-.41-1.53-.55-2.31-.03-.18-.06-.35-.09-.53-.02-.1-.03-.2-.05-.3,0,.07.03.25,0-.06-.05-.37-.07-.74-.09-1.12,0,.13-.12.19,0,.03-.04.05-.09.14-.11.19-.08.15.12-.04-.06.05-.03.02-.23.17-.27.14-.02-.01.17-.04.18-.05.01-.03-.4.11-.11.03.26-.07-.17.16-.1-.02,0,0,.19.04.2.05.02,0,.18.04.2.07,0,0-.32-.17-.07-.02.1.06.2.14.31.19.17.07-.18-.17-.04-.03.04.04.09.07.13.11.13.11.25.24.37.36.09.1.18.2.26.31-.22-.27.05.08.1.17.07.11.14.23.21.35.05.1.24.54.12.22.1.27.19.54.25.82.01.06.02.11.03.17.06.29,0-.03,0-.06.06.13.03.37.03.51,0,.13-.01.26-.02.4,0,.17.06.1,0-.06.01.04-.04.2-.04.22-.03.13-.07.26-.11.38,0,.03-.06.12-.05.15.08-.18.1-.22.05-.12-.02.05-.04.09-.07.14-.06.11-.12.21-.18.31-.01.02-.06.12-.09.13.08-.03.18-.21.04-.06-.09.1-.18.21-.28.3-.04.04-.08.07-.11.11-.15.15-.07.12.02,0-.17.22-.53.3-.76.45-.16.11.26-.08.07-.03-.08.02-.16.06-.24.08-.13.04-.26.07-.4.1-.29.07.1-.03.1,0,0,0-.22.02-.25.02-.02,0-.45,0-.45-.01,0-.02.39.08.1.01-.07-.02-.13-.03-.2-.04s-.13-.04-.19-.06c-.29-.07.27.13-.02,0-.71-.33-1.65-.22-2.05.54-.35.67-.22,1.69.54,2.05,1.6.75,3.41.65,4.92-.27s2.49-2.51,2.66-4.32-.6-3.55-1.74-4.86-3.55-2.57-5.08-1.03c-1.02,1.03-.78,2.44-.6,3.73.16,1.11.39,2.21.71,3.29.22.75,1.06,1.3,1.85,1.05s1.29-1.04,1.05-1.85h0Z"/>
    <path class="cls-1" d="m30.63,9.55s-.09-.09-.13-.14c-.19-.19.08.06.06.09,0-.02-.17-.28-.19-.31-.13-.22.06.08.04.11,0-.01-.05-.15-.06-.17-.02-.06-.03-.12-.05-.18-.01-.04-.02-.09-.03-.13-.02-.12-.01-.06.02.17.03-.09-.02-.27-.02-.37s.05-.28.02-.37c.01.04-.07.37,0,.12.02-.06.03-.12.04-.18.04-.14.09-.27.13-.41.06-.19-.14.26-.04.1.03-.05.06-.11.09-.17.06-.11.14-.21.2-.32.09-.17-.2.21-.06.08.04-.04.08-.1.13-.14.08-.09.21-.25.32-.3-.24.1-.14.11-.04.04.06-.04.12-.08.18-.11.08-.05.28-.21.38-.2-.13-.01-.24.09-.06.03.07-.02.13-.05.2-.07.17-.05.34-.1.52-.13.06-.01.17-.01.21-.04-.04.02-.35.03-.08.01.14,0,.29-.02.43-.02s.29,0,.44.01c.07,0,.15.01.22.02.29.03-.21-.04-.02,0,.27.06.53.11.8.19.12.04.31.07.41.14-.19-.16-.17-.08-.06-.02.1.05.2.1.29.15.05.03.32.25.37.24-.04.01-.25-.24-.06-.03.05.05.1.1.15.15.14.14.04-.03-.04-.05.03,0,.11.18.11.18.13.2-.08-.07-.02-.09,0,0,.07.21.07.23.03.08.01.25.02.03,0-.24,0-.04,0,.03,0,.05,0,.48,0,.21,0-.23,0-.05-.02.02-.02.06-.03.12-.05.18s-.11.24,0,.04c.11-.22-.02.03-.05.08-.08.15-.17.28-.26.42-.06.1-.06.19.05-.06-.03.07-.12.14-.17.2-.23.26-.48.5-.74.72-.06.05-.11.09-.17.14-.22.18.15-.1,0,0-.14.09-.27.19-.41.29-.3.2-.61.38-.92.55-.69.37-.97,1.39-.54,2.05.45.7,1.31.93,2.05.54,1.42-.76,2.86-1.84,3.66-3.26.4-.71.65-1.54.56-2.35-.13-1.15-.7-2.06-1.62-2.75-2.64-1.99-7.45-1.6-9.02,1.57-.87,1.75-.79,3.93.64,5.37.55.56,1.57.6,2.12,0s.59-1.53,0-2.12h0Z"/>
    <path class="cls-1" d="m17.82,21.34c-.34-.51-.66-1.03-.93-1.58-.08-.16.01.02.02.05-.02-.06-.05-.13-.07-.19-.05-.15-.09-.3-.12-.45,0-.03-.03-.24-.01-.06s0-.04,0-.06c0-.09,0-.18,0-.27,0-.25.03.07-.01.08,0,0,.09-.31.09-.31.02.02-.13.25-.04.11.04-.06.07-.13.11-.19,0,0,.09-.13.09-.14.02.02-.19.2-.06.09.04-.03.08-.08.11-.12.18-.19-.16.06-.02,0,.06-.02.34-.16.14-.09s-.03.02,0,0c.23-.06-.1.04-.11,0,0-.02.42.05,0-.02.03,0,.21.05.02,0s.09.06.12.09c-.21-.13-.06-.03.04.08.19.2-.09-.16.06.07.16.25.31.5.45.76s.27.53.39.8c.07.16,0-.02-.02-.04.03.09.07.17.1.26.05.15.1.3.15.45s.08.3.11.46c.02.11.04.39.03.13.02.31.04.62,0,.93.03-.27-.02.02-.04.13-.02.07-.04.13-.06.19-.02.06-.1.17,0,0,.12-.19-.06.09-.09.14-.03.06-.08.11-.11.17-.07.16.17-.18.05-.06-.09.08-.16.18-.25.26-.02.02-.14.14-.15.14.03,0,.25-.17.06-.05-.1.06-.2.12-.3.18-.06.03-.21.16-.05.03.14-.11.03-.01-.05.01-.04.01-.32.06-.33.08.04-.1.33-.01.11-.02-.06,0-.13,0-.19,0-.04,0-.23,0,.01,0,.25.01-.03-.02-.08-.03-.18-.03,0,0,0,0,.1.05.12.05.04.02-.05-.02-.09-.05-.13-.07-.68-.39-1.67-.18-2.05.54s-.19,1.63.54,2.05c1.52.88,3.31.44,4.58-.68,1.38-1.22,1.69-3.06,1.38-4.8-.16-.88-.53-1.74-.93-2.53-.38-.75-.83-1.52-1.51-2.05-1.62-1.25-3.81-.51-4.74,1.21-1.07,1.98-.09,4.06,1.04,5.76.43.65,1.34.99,2.05.54.65-.42,1-1.35.54-2.05h0Z"/>
    <path class="cls-1" d="m39.3,42.43s-.5-.03-.2.02c-.1-.02-.19-.05-.28-.07-.43-.12.13.06-.11-.05-.05-.03-.31-.2-.12-.06-.08-.06-.15-.13-.22-.2,0,0-.3-.37-.15-.16-.06-.08-.11-.17-.16-.26,0-.02-.2-.42-.11-.2-.09-.23-.17-.5-.2-.75.03.31.04-.6,0-.28.08-.58.26-.95.56-1.41.56-.86,1.5-1.55,2.45-2.08.5-.28.82-.42,1.31-.58.28-.09.56-.17.84-.24.11-.03.23-.05.34-.07.11-.02.23-.04.34-.06-.09,0-.08,0,.03,0,.52-.06,1.08-.08,1.6,0-.22-.03.12.03.17.04.13.03.27.06.4.1.1.03.21.06.31.1-.15-.06.26.12.31.15.43.24.67.42,1,.82-.15-.18.04.07.07.12.06.11.13.21.19.32.05.09.09.18.13.27-.1-.24.06.21.08.27.06.21.12.43.15.66-.05-.3,0,.18,0,.2,0,.1,0,.2,0,.3,0,.13,0,.25-.01.38,0,.06-.04.39,0,.13-.04.28-.11.55-.19.82-.24.78-.71,1.53-1.38,2.03-1.9,1.41-4.53,1.25-6.53.13-1.69-.94-3.2,1.65-1.51,2.59,2.78,1.56,6.42,1.81,9.2.11,2.61-1.6,3.87-4.73,3.27-7.71-.65-3.18-3.71-5.03-6.83-4.87s-6.41,1.8-8.23,4.42c-1.07,1.54-1.36,3.49-.63,5.22s2.26,2.94,4.12,2.87c.81-.03,1.5-.67,1.5-1.5,0-.79-.69-1.53-1.5-1.5h0Z"/>
    <path class="cls-1" d="m63.26,40.05c-.51-.07-1.02-.17-1.51-.3-.64-.17-.84-.22-1.35-.52-.08-.05-.16-.1-.25-.15-.34-.2.13.17-.14-.11-.06-.07-.13-.13-.2-.19-.31-.3.16.22-.09-.13-.03-.04-.13-.26-.03-.01-.05-.12-.1-.27-.12-.41.02.12-.01.05,0-.16.02-.16.03-.26.07-.41.25-1.04.86-1.9,1.71-2.64.34-.3.74-.55,1.24-.78.25-.12,1.03-.34,1.25-.36.54-.06.96-.03,1.33.05.64.14.96.26,1.48.57.49.29.69.46,1.09.91.18.2.58.85.66,1.08s.13.45.18.68c.09.43.02-.23.02.21,0,.1,0,.21,0,.31,0,.58-.05.79-.26,1.42-.16.46.06-.12-.06.14-.05.12-.11.23-.18.34-.05.09-.1.18-.16.26,0,0-.29.4-.13.19-.37.47-.59.65-1.03.89-.39.22-.82.32-1.2.33-.13,0-.25,0-.38,0-.08,0-.15,0-.23-.02.15.02.13.02-.05-.01-.27-.07-.54-.13-.8-.23-.73-.29-1.49-1.05-1.71-1.82-.55-1.85-3.44-1.06-2.89.8.91,3.06,4.28,4.85,7.35,4.12s5.02-4.02,4.68-7.04c-.38-3.42-3.32-5.88-6.66-6.19s-6.42,1.87-7.71,4.76c-.83,1.87-.93,4.04.72,5.5,1.25,1.1,2.92,1.57,4.53,1.8.8.12,1.61-.2,1.85-1.05.19-.7-.24-1.73-1.05-1.85h0Z"/>
    <path class="cls-1" d="m65.18,37.31c-.13-.31.09.24-.02-.05-.05-.12-.09-.24-.14-.37-.07-.21-.12-.42-.17-.64-.02-.11-.01-.07.02.13,0-.07-.01-.14-.01-.21v-.11c.01-.17,0-.14-.01.08-.02-.02.06-.26.08-.28l-.09.23s.05-.08.07-.12c-.07.23-.21.24-.05.08s.15-.03-.08.05c.03-.01.16-.08.19-.11-.25.1-.31.12-.16.07l.07-.02c.33-.09-.13.03-.13,0,.04,0,.09,0,.13,0l-.27-.04s.08.02.12.03c-.25-.11-.32-.14-.21-.08.1.06.04.01-.17-.14.03.03.07.06.1.1l.3-2.36c-1.54,1.18-3.01,2.95-2.83,5.03s1.78,4.02,3.95,3.86c.73-.05,1.18-.44,1.45-1.1.59-1.47.38-3.26-.46-4.6-.41-.67-1.36-.99-2.05-.54s-.98,1.34-.54,2.05c.07.11.13.22.19.34.13.24-.07-.22-.01-.05.02.06.04.12.07.18.04.12.07.25.1.37.01.06.02.13.04.19.04.18-.03-.39-.01-.06,0,.13.01.26,0,.39,0,.06,0,.13,0,.19,0,.21,0-.04.02-.11-.09.28-.12.56-.23.84l1.45-1.1c-.08,0-.16,0-.24,0-.25.01.28.08.12.02-.06-.02-.13-.03-.19-.05s-.29-.09-.04,0,.03,0-.03-.03-.14-.11-.2-.13c.09.03.26.23.09.05-.05-.05-.1-.09-.14-.14-.04-.04-.2-.24-.04-.04s0,0-.03-.05c-.04-.07-.09-.14-.13-.22-.03-.05-.13-.29-.03-.05s0,0-.01-.06c-.02-.07-.04-.13-.06-.2s-.02-.14-.04-.2c.11.31.03.25.02.07,0-.07,0-.14,0-.21.01-.25.02-.04-.02.08.05-.14.06-.3.1-.45.02-.08.08-.18.09-.26-.01.12-.13.28-.02.06.07-.14.14-.28.22-.41.04-.07.08-.13.13-.2.03-.04.05-.08.08-.12.07-.09.04-.05-.09.12.03,0,.28-.32.31-.36.11-.12.22-.23.34-.33.07-.06.14-.13.21-.19s.32-.26,0,0c.39-.3.65-.59.72-1.1s-.09-.89-.41-1.26c-1.03-1.16-2.96-.86-3.91.24-.55.63-.83,1.45-.77,2.29.06.9.37,1.67.73,2.49.14.32.58.6.9.69.36.1.84.05,1.16-.15s.6-.51.69-.9c.1-.42.02-.76-.15-1.16h0Z"/>
    <path class="cls-1" d="m43.06,40.69c-.08-.33-.15-.67-.21-1-.07-.41.01.31-.01-.11-.01-.17-.02-.34-.02-.5,0-.08,0-.17.01-.25.02-.17.01-.16,0,.03-.02-.1.07-.27.09-.36.06-.16.05-.15-.01.01.03-.06.06-.12.1-.18.11-.24-.24.25,0,0s-.25.13,0,0c.05-.03.1-.06.15-.09.14-.07.1-.06-.13.04.07,0,.17-.06.24-.08.39-.1-.24-.02.01-.01.05,0,.11,0,.16,0,.16.01.11,0-.16-.03.05.03.17.06.22.06-.24-.11-.29-.12-.15-.05-.2-.17-.24-.2-.12-.1.16.17-.19-.33,0,.02l1.3-2.26c-1.54.14-3,.82-3.98,2.04-1.08,1.33-1.46,2.94-1.17,4.62.12.69.4,1.39.79,1.98.5.76,1.23,1.58,2.18,1.75,2.03.36,3.03-1.65,2.94-3.38-.1-1.95-.61-3.81-1.46-5.56-.34-.71-1.41-.95-2.05-.54-.73.47-.91,1.3-.54,2.05.07.14.13.28.2.42.08.15,0-.03-.02-.05.03.06.05.12.07.19.11.29.22.58.31.88.18.57.31,1.16.41,1.75,0,.02.04.24.01.06-.03-.19,0,.09.01.13.01.13.03.27.04.4.02.26,0,.53.02.79,0,.15,0-.15.03-.16-.01,0-.03.16-.04.19,0,.04-.1.24-.08.27,0,0,.13-.29.06-.15-.03.06-.15.21,0,.03s.05-.06.01-.03c.03-.03.29-.19.11-.1.25-.14.45-.11.72-.06.15.03.02,0-.03-.03.03.01.17.17.07.05-.09-.1-.18-.19-.27-.28-.02-.02-.15-.16-.02-.02s-.02-.03-.05-.07c-.03-.05-.32-.62-.35-.62.02,0,.12.34.03.05-.02-.05-.04-.1-.05-.16-.04-.12-.07-.24-.1-.37,0-.03-.03-.2-.04-.21,0,0,.03.3.02.13,0-.11-.02-.22-.02-.33,0-.13,0-.26,0-.38,0-.05.01-.11.01-.16.01-.21-.06.27,0,.07.02-.08.22-.62.19-.68.01.02-.16.32-.02.06.02-.05.05-.1.07-.14.06-.11.12-.22.19-.32.03-.04.08-.14.12-.17-.07.06-.16.19-.03.05.1-.1.19-.21.3-.31.05-.05.34-.27.18-.16s0,0,.02,0c.07-.05.15-.1.22-.14.11-.06.22-.12.33-.18.17-.09.07.04-.07.02.04,0,.16-.06.2-.07.12-.04.24-.07.36-.1.07-.02.14-.03.21-.04.2-.05-.38.04-.03,0,1.15-.11,1.85-1.19,1.3-2.26-.9-1.73-3.23-1.7-4.61-.63-1.72,1.33-1.46,3.66-1.02,5.53.18.77,1.1,1.29,1.85,1.05.8-.26,1.24-1.03,1.05-1.85h0Z"/>
    <path class="cls-1" d="m27.84,70.94l2.5,11.61,2.89-.8c-1.4-4.68-1.69-9.54-1.95-14.38l-2.95.4c2.34,5.56,6.29,10.25,11.46,13.41,1.15.71,2.5-.46,2.2-1.69-1.18-4.96-2.22-9.96-3.13-14.98-.14-.8-1.11-1.25-1.85-1.05-.84.23-1.19,1.05-1.05,1.85.91,5.02,1.95,10.01,3.13,14.98l2.2-1.69c-4.44-2.71-8.05-6.81-10.08-11.62-.29-.69-.84-1.2-1.65-1.07-.7.11-1.34.72-1.3,1.47.28,5.1.59,10.26,2.06,15.18.56,1.86,3.3,1.09,2.89-.8l-2.5-11.61c-.41-1.89-3.3-1.09-2.89.8h0Z"/>
    <path class="cls-1" d="m44.23,70.14c-.8,3.02-1.35,7.15,1.46,9.34.89.69,1.97,1.1,3.1.86,1.05-.23,1.83-1.09,2.28-2.02.9-1.82.96-3.83.45-5.78-.56-2.16-1.72-4.15-2.98-5.97-.46-.67-1.32-.97-2.05-.54-.66.39-1,1.38-.54,2.05,1.09,1.57,2.11,3.24,2.63,5.07.24.85.35,1.54.25,2.45-.02.18-.17.81-.31,1.14-.08.17-.35.61-.38.64,0,0-.2.04,0,.03.17,0-.34-.11-.26-.07-.41-.19-.41-.23-.72-.6.18.22-.13-.21-.16-.27s-.2-.42-.09-.15c-.15-.35-.24-.73-.29-1.11.04.29-.02-.29-.02-.35-.01-.21-.01-.41-.01-.62,0-.37.04-.74.07-1.1.02-.19.03-.21,0-.08.02-.11.03-.21.05-.32.04-.21.07-.42.12-.63.08-.41.18-.81.29-1.21.5-1.87-2.4-2.66-2.89-.8h0Z"/>
    <path class="cls-1" d="m53.72,70.89l1.49,6.82c.17.77,1.1,1.29,1.85,1.05.81-.26,1.23-1.02,1.05-1.85l-1.49-6.82c-.17-.77-1.1-1.29-1.85-1.05-.81.26-1.23,1.02-1.05,1.85h0Z"/>
    <path class="cls-1" d="m55.86,68.76c.24-.15.49-.29.75-.42.1-.05.19-.09.29-.14.06-.03.13-.06.2-.09-.19.08-.21.09-.06.03.49-.18.98-.34,1.48-.46.25-.06.53-.14.79-.14-.41,0-.06.01.03,0,.14-.01.28-.02.43-.03.54-.03,1.07-.01,1.6.05.78.09,1.53-.75,1.5-1.5-.04-.89-.66-1.41-1.5-1.5-2.42-.26-4.95.34-7.02,1.61-.67.41-.98,1.36-.54,2.05s1.34.98,2.05.54h0Z"/>
    <path class="cls-1" d="m58.05,73.99l4.18-1.09c.76-.2,1.29-1.08,1.05-1.85s-1.03-1.26-1.85-1.05l-4.18,1.09c-.76.2-1.29,1.08-1.05,1.85s1.03,1.26,1.85,1.05h0Z"/>
    <path class="cls-1" d="m59.64,80.36c1.17-.32,2.36-.57,3.56-.75.14-.02.28-.04.42-.06-.32.04.09,0,.16-.02.32-.04.65-.07.98-.1.6-.05,1.21-.09,1.82-.11.78-.02,1.54-.67,1.5-1.5s-.66-1.53-1.5-1.5c-2.6.08-5.21.46-7.72,1.15-.76.21-1.3,1.08-1.05,1.85s1.03,1.27,1.85,1.05h0Z"/>
    <path class="cls-1" d="m69.44,69.98l.41,4.15c.13,1.36.04,3.21,1.42,4,.67.38,1.37.35,2.11.25.68-.09,1.35-.18,2.03-.27,1.41-.19,2.81-.37,4.22-.56.77-.1,1.54-.62,1.5-1.5-.03-.72-.67-1.61-1.5-1.5-1.21.16-2.42.32-3.63.48-.59.08-1.18.16-1.77.23-.31.04-.62.08-.93.12-.1.01-.71,0-.78.07.12-.12.59.28.55.42.01-.04-.08-.31-.09-.35.05.22.02.12,0-.05-.06-.59-.12-1.19-.17-1.78l-.36-3.73c-.08-.78-.64-1.54-1.5-1.5-.75.03-1.58.66-1.5,1.5h0Z"/>
    <path class="cls-1" d="m72.23,74.3c-.81-3.64-1.63-7.28-2.44-10.92-.18-.79-1.09-1.25-1.85-1.05-.81.22-1.22,1.05-1.05,1.85.81,3.64,1.63,7.28,2.44,10.92.18.79,1.09,1.25,1.85,1.05.81-.22,1.22-1.05,1.05-1.85h0Z"/>
  </g>
</svg>