<svg id="visual" viewBox="0 0 900 600" width="900" height="600" xmlns="http://www.w3.org/2000/svg" xmlns:xlink="http://www.w3.org/1999/xlink" version="1.1"><g><g transform="translate(844 313)"><path d="M62 -76.1C78.6 -60.1 88.9 -38.8 92 -16.9C95.1 5.1 91 27.6 80.9 48.2C70.8 68.8 54.7 87.4 33.3 98.2C11.8 109 -15 111.9 -37.5 103.5C-60 95.1 -78.2 75.4 -91.6 52.7C-105 29.9 -113.5 4.2 -109.4 -19.4C-105.4 -43 -88.7 -64.4 -68.4 -79.8C-48.1 -95.2 -24 -104.4 -0.6 -103.7C22.8 -102.9 45.5 -92.1 62 -76.1Z" fill="#ccf9a6"></path></g><g transform="translate(494 148)"><path d="M57.7 -69.2C75.5 -53.9 91 -36.3 97.4 -14.9C103.9 6.4 101.2 31.7 89 50.1C76.9 68.6 55.2 80.4 33.2 86.1C11.3 91.8 -11 91.6 -30.3 84.2C-49.7 76.8 -66.2 62.3 -76 44.4C-85.8 26.4 -88.8 5.1 -86.2 -16.1C-83.5 -37.4 -75.3 -58.6 -60 -74.4C-44.7 -90.1 -22.3 -100.4 -1.2 -99C20 -97.6 39.9 -84.5 57.7 -69.2Z" fill="#ccf9a6"></path></g><g transform="translate(11 287)"><path d="M44.2 -50.8C56.2 -42.7 64 -27.7 65.6 -12.5C67.2 2.8 62.7 18.2 54.3 30.2C46 42.1 33.8 50.7 20.3 55.3C6.9 60 -7.8 60.8 -21.5 56.8C-35.3 52.8 -48.2 44.1 -56.9 31.6C-65.7 19.1 -70.2 3 -68 -12.4C-65.8 -27.8 -56.8 -42.4 -44.3 -50.4C-31.9 -58.5 -15.9 -59.9 0.1 -60.1C16.1 -60.2 32.3 -58.9 44.2 -50.8Z" fill="#b5de92"></path></g></g></svg>